<svg width="114" height="28" viewBox="0 0 114 28" fill="none" xmlns="http://www.w3.org/2000/svg">
<line x1="29.5" y1="26" x2="29.5" y2="1" stroke="#20CE99"/>
<path d="M42.2031 2.44141H39.0996V11H37.3838V2.44141H34.3076V1.04688H42.2031V2.44141ZM45.3408 11H43.6182V1.04688H45.3408V11ZM49.709 1.04688L52.5801 8.67578L55.4443 1.04688H57.6797V11H55.957V7.71875L56.1279 3.33008L53.1885 11H51.9512L49.0186 3.33691L49.1895 7.71875V11H47.4668V1.04688H49.709ZM65.5479 6.55664H61.46V9.61914H66.2383V11H59.7305V1.04688H66.1904V2.44141H61.46V5.18945H65.5479V6.55664ZM76.8682 6.78223H72.8623V11H71.1328V1.04688H77.4561V2.44141H72.8623V5.40137H76.8682V6.78223ZM86.7734 6.2832C86.7734 7.25846 86.6048 8.11523 86.2676 8.85352C85.9303 9.58724 85.4473 10.1523 84.8184 10.5488C84.194 10.9408 83.474 11.1367 82.6582 11.1367C81.8516 11.1367 81.1315 10.9408 80.498 10.5488C79.8691 10.1523 79.3815 9.58952 79.0352 8.86035C78.6934 8.13118 78.5202 7.29036 78.5156 6.33789V5.77734C78.5156 4.80664 78.6865 3.94987 79.0283 3.20703C79.3747 2.46419 79.86 1.89681 80.4844 1.50488C81.1133 1.1084 81.8333 0.910156 82.6445 0.910156C83.4557 0.910156 84.1735 1.10612 84.7979 1.49805C85.4268 1.88542 85.9121 2.44596 86.2539 3.17969C86.5957 3.90885 86.7689 4.75879 86.7734 5.72949V6.2832ZM85.0439 5.76367C85.0439 4.66081 84.8343 3.81543 84.415 3.22754C84.0003 2.63965 83.4102 2.3457 82.6445 2.3457C81.8971 2.3457 81.3115 2.63965 80.8877 3.22754C80.4684 3.81087 80.2542 4.63802 80.2451 5.70898V6.2832C80.2451 7.37695 80.457 8.22233 80.8809 8.81934C81.3092 9.41634 81.9017 9.71484 82.6582 9.71484C83.4238 9.71484 84.0117 9.42318 84.4219 8.83984C84.8366 8.25651 85.0439 7.4043 85.0439 6.2832V5.76367ZM92.1533 7.16504H90.2256V11H88.4961V1.04688H91.9961C93.1445 1.04688 94.0309 1.30436 94.6553 1.81934C95.2796 2.33431 95.5918 3.07943 95.5918 4.05469C95.5918 4.72005 95.43 5.27832 95.1064 5.72949C94.7874 6.17611 94.3408 6.52018 93.7666 6.76172L96.002 10.9111V11H94.1494L92.1533 7.16504ZM90.2256 5.77734H92.0029C92.5863 5.77734 93.042 5.63151 93.3701 5.33984C93.6982 5.04362 93.8623 4.6403 93.8623 4.12988C93.8623 3.59668 93.7096 3.18424 93.4043 2.89258C93.1035 2.60091 92.6523 2.45052 92.0508 2.44141H90.2256V5.77734ZM38.2588 21.7637L40.5488 17.0469H42.4629L39.127 23.3359V27H37.3906V23.3359L34.0479 17.0469H35.9688L38.2588 21.7637ZM51.2812 22.2832C51.2812 23.2585 51.1126 24.1152 50.7754 24.8535C50.4382 25.5872 49.9551 26.1523 49.3262 26.5488C48.7018 26.9408 47.9818 27.1367 47.166 27.1367C46.3594 27.1367 45.6393 26.9408 45.0059 26.5488C44.377 26.1523 43.8893 25.5895 43.543 24.8604C43.2012 24.1312 43.028 23.2904 43.0234 22.3379V21.7773C43.0234 20.8066 43.1943 19.9499 43.5361 19.207C43.8825 18.4642 44.3678 17.8968 44.9922 17.5049C45.6211 17.1084 46.3411 16.9102 47.1523 16.9102C47.9635 16.9102 48.6813 17.1061 49.3057 17.498C49.9346 17.8854 50.4199 18.446 50.7617 19.1797C51.1035 19.9089 51.2767 20.7588 51.2812 21.7295V22.2832ZM49.5518 21.7637C49.5518 20.6608 49.3421 19.8154 48.9229 19.2275C48.5081 18.6396 47.918 18.3457 47.1523 18.3457C46.4049 18.3457 45.8193 18.6396 45.3955 19.2275C44.9762 19.8109 44.762 20.638 44.7529 21.709V22.2832C44.7529 23.377 44.9648 24.2223 45.3887 24.8193C45.8171 25.4163 46.4095 25.7148 47.166 25.7148C47.9316 25.7148 48.5195 25.4232 48.9297 24.8398C49.3444 24.2565 49.5518 23.4043 49.5518 22.2832V21.7637ZM60.2842 17.0469V23.6982C60.2842 24.7555 59.9447 25.5941 59.2656 26.2139C58.5911 26.8291 57.6911 27.1367 56.5654 27.1367C55.4261 27.1367 54.5215 26.8337 53.8516 26.2275C53.1816 25.6169 52.8467 24.7715 52.8467 23.6914V17.0469H54.5693V23.7051C54.5693 24.3704 54.738 24.8786 55.0752 25.2295C55.4124 25.5804 55.9092 25.7559 56.5654 25.7559C57.8962 25.7559 58.5615 25.054 58.5615 23.6504V17.0469H60.2842ZM65.7939 23.165H63.8662V27H62.1367V17.0469H65.6367C66.7852 17.0469 67.6715 17.3044 68.2959 17.8193C68.9202 18.3343 69.2324 19.0794 69.2324 20.0547C69.2324 20.7201 69.0706 21.2783 68.7471 21.7295C68.4281 22.1761 67.9814 22.5202 67.4072 22.7617L69.6426 26.9111V27H67.79L65.7939 23.165ZM63.8662 21.7773H65.6436C66.2269 21.7773 66.6826 21.6315 67.0107 21.3398C67.3389 21.0436 67.5029 20.6403 67.5029 20.1299C67.5029 19.5967 67.3503 19.1842 67.0449 18.8926C66.7441 18.6009 66.293 18.4505 65.6914 18.4414H63.8662V21.7773ZM76.1846 27H74.4619V17.0469H76.1846V27ZM78.3105 27V17.0469H81.25C82.1296 17.0469 82.9089 17.2428 83.5879 17.6348C84.2715 18.0267 84.8001 18.5827 85.1738 19.3027C85.5475 20.0228 85.7344 20.8477 85.7344 21.7773V22.2764C85.7344 23.2197 85.5452 24.0492 85.167 24.7646C84.7933 25.4801 84.2578 26.0316 83.5605 26.4189C82.8678 26.8063 82.0726 27 81.1748 27H78.3105ZM80.04 18.4414V25.6191H81.168C82.0749 25.6191 82.7699 25.3366 83.2529 24.7715C83.7406 24.2018 83.9889 23.3861 83.998 22.3242V21.7705C83.998 20.6904 83.7633 19.8656 83.2939 19.2959C82.8245 18.7262 82.1432 18.4414 81.25 18.4414H80.04ZM93.2744 22.5566H89.1865V25.6191H93.9648V27H87.457V17.0469H93.917V18.4414H89.1865V21.1895H93.2744V22.5566ZM100.944 24.6826H97.0889L96.2822 27H94.4844L98.2441 17.0469H99.7959L103.562 27H101.758L100.944 24.6826ZM97.5742 23.2881H100.459L99.0166 19.1592L97.5742 23.2881ZM109.899 24.4365C109.899 23.999 109.744 23.6618 109.435 23.4248C109.129 23.1878 108.576 22.9486 107.773 22.707C106.971 22.4655 106.333 22.1966 105.859 21.9004C104.952 21.3307 104.499 20.5879 104.499 19.6719C104.499 18.8698 104.825 18.209 105.477 17.6895C106.133 17.1699 106.983 16.9102 108.026 16.9102C108.719 16.9102 109.337 17.0378 109.879 17.293C110.421 17.5482 110.847 17.9128 111.157 18.3867C111.467 18.8561 111.622 19.3779 111.622 19.9521H109.899C109.899 19.4326 109.735 19.027 109.407 18.7354C109.084 18.4391 108.619 18.291 108.013 18.291C107.448 18.291 107.008 18.4118 106.693 18.6533C106.383 18.8949 106.229 19.2321 106.229 19.665C106.229 20.0296 106.397 20.335 106.734 20.5811C107.072 20.8226 107.628 21.0596 108.402 21.292C109.177 21.5199 109.799 21.7819 110.269 22.0781C110.738 22.3698 111.082 22.707 111.301 23.0898C111.52 23.4681 111.629 23.9124 111.629 24.4229C111.629 25.2523 111.31 25.9131 110.672 26.4053C110.038 26.8929 109.177 27.1367 108.088 27.1367C107.368 27.1367 106.705 27.0046 106.099 26.7402C105.497 26.4714 105.028 26.1022 104.69 25.6328C104.358 25.1634 104.191 24.6165 104.191 23.9922H105.921C105.921 24.5573 106.108 24.9948 106.481 25.3047C106.855 25.6146 107.391 25.7695 108.088 25.7695C108.689 25.7695 109.141 25.6488 109.441 25.4072C109.747 25.1611 109.899 24.8376 109.899 24.4365Z" fill="#636266"/>
<circle cx="1.40741" cy="2.40808" r="1.40741" fill="#C520CE"/>
<circle cx="7.03631" cy="2.40738" r="1.40741" fill="#C520CE"/>
<circle cx="12.6652" cy="2.40738" r="1.40741" fill="#C520CE"/>
<circle cx="18.2941" cy="2.40738" r="1.40741" fill="#C520CE"/>
<circle cx="23.9269" cy="2.40738" r="1.40741" fill="#C520CE"/>
<circle cx="1.40741" cy="8.03705" r="1.40741" fill="#C520CE"/>
<circle cx="7.03631" cy="8.03702" r="1.40741" fill="#C520CE"/>
<circle cx="12.6652" cy="8.03702" r="1.40741" fill="#C520CE"/>
<circle cx="18.2941" cy="8.03702" r="1.40741" fill="#C520CE"/>
<circle cx="23.9269" cy="8.03702" r="1.40741" fill="#C520CE"/>
<circle cx="1.40741" cy="13.6667" r="1.40741" fill="#C520CE"/>
<circle cx="7.03631" cy="13.6666" r="1.40741" fill="#C520CE"/>
<circle cx="12.6652" cy="13.6666" r="1.40741" fill="#C520CE"/>
<circle cx="18.2941" cy="13.6666" r="1.40741" fill="#C520CE"/>
<circle cx="23.9269" cy="13.6666" r="1.40741" fill="#C520CE"/>
<circle cx="1.40741" cy="19.2963" r="1.40741" fill="#C520CE"/>
<circle cx="7.03631" cy="19.2963" r="1.40741" fill="#C520CE"/>
<circle cx="12.6652" cy="19.2963" r="1.40741" fill="#C520CE"/>
<circle cx="18.2941" cy="19.2963" r="1.40741" fill="#C520CE"/>
<circle cx="23.9269" cy="19.2963" r="1.40741" fill="#C520CE"/>
<circle cx="1.40741" cy="24.9259" r="1.40741" fill="#C520CE"/>
<circle cx="7.03631" cy="24.926" r="1.40741" fill="#C520CE"/>
<circle cx="12.6652" cy="24.926" r="1.40741" fill="#C520CE"/>
<circle cx="18.2941" cy="24.926" r="1.40741" fill="#C520CE"/>
<circle cx="23.9269" cy="24.926" r="1.40741" fill="#C520CE"/>
</svg>
