<svg width="85" height="47" viewBox="0 0 85 47" fill="none" xmlns="http://www.w3.org/2000/svg">
<path fill-rule="evenodd" clip-rule="evenodd" d="M31.3441 9.1424C37.6163 9.1424 43.038 12.6058 45.6185 17.6325H35.8798C34.5763 16.8224 33.0187 16.3511 31.3441 16.3511C26.7531 16.3511 23.0304 19.8966 23.0304 24.2689C23.0304 27.7765 25.4253 30.7496 28.7393 31.7912L21.2188 38.8336C19.3033 39.2713 17.3171 39.406 15.353 39.2587C13.3138 39.0819 11.2724 38.4549 9.67068 37.2114C5.99879 34.4066 5.97228 29.8259 5.94577 25.7439C5.94797 22.209 5.93693 18.672 5.95018 15.137C3.96843 15.0929 1.98667 15.1307 0.0049096 15.1181C0.0049096 12.9551 -0.00613699 10.792 0.0049096 8.6311C5.92809 8.59743 0.00490948 8.6311 5.92809 8.59743C5.98111 5.73373 5.90821 2.86371 5.96344 0C8.58148 0.0126247 11.1995 0.00841648 13.8198 0.00210412C13.8131 9.45381 13.7844 18.9055 13.7756 28.3572C13.7712 29.4514 14.0893 30.5981 14.8825 31.4187C15.9982 32.5928 17.0498 32.7254 18.044 32.536C16.4135 30.1605 15.4635 27.3199 15.4635 24.2689C15.4635 15.9156 22.5731 9.1424 31.3441 9.1424ZM0.00270028 10.8383H13.7977V12.4669H0.00270028V10.8383Z" fill="#20CE99"/>
<path fill-rule="evenodd" clip-rule="evenodd" d="M45.0911 31.848C42.3427 36.3593 37.2171 39.3955 31.3447 39.3955C30.1318 39.3955 28.9498 39.265 27.8164 39.0189L35.2574 31.848H45.0911Z" fill="#636266"/>
<path d="M29.4258 19.6356H34.6265V21.0917H32.8679V29.8301H31.1844V21.0917H29.4258V19.6356ZM36.9043 27.4861C36.9043 27.8543 36.9839 28.1152 37.1407 28.2646C37.2998 28.4161 37.5119 28.4898 37.777 28.4898C38.0421 28.4898 38.252 28.4161 38.4111 28.2646C38.5679 28.1152 38.6475 27.8543 38.6475 27.4861V21.9796C38.6475 21.6114 38.5679 21.3526 38.4111 21.2011C38.252 21.0517 38.0421 20.9759 37.777 20.9759C37.5119 20.9759 37.2998 21.0517 37.1407 21.2011C36.9839 21.3526 36.9043 21.6114 36.9043 21.9796V27.4861ZM35.223 22.0827C35.223 21.2579 35.4418 20.6225 35.8792 20.1827C36.3189 19.7408 36.9507 19.5199 37.777 19.5199C38.6011 19.5199 39.2329 19.7408 39.6726 20.1827C40.11 20.6225 40.3288 21.2579 40.3288 22.0827V27.383C40.3288 28.2099 40.11 28.8433 39.6726 29.2851C39.2329 29.727 38.6011 29.9479 37.777 29.9479C36.9507 29.9479 36.3189 29.727 35.8792 29.2851C35.4418 28.8433 35.223 28.2099 35.223 27.383V22.0827ZM43.0219 19.6356V27.5008C43.0219 27.869 43.1015 28.1257 43.2583 28.273C43.4174 28.4182 43.6273 28.4898 43.8924 28.4898C44.1575 28.4898 44.3696 28.4182 44.5287 28.273C44.6855 28.1257 44.7651 27.869 44.7651 27.5008V19.6356H46.3558V27.3977C46.3558 28.2246 46.1437 28.858 45.7195 29.2998C45.2975 29.7417 44.6723 29.9626 43.8482 29.9626C43.0219 29.9626 42.3967 29.7417 41.9747 29.2998C41.5505 28.858 41.3384 28.2246 41.3384 27.3977V19.6356H43.0219ZM52.3806 26.03V27.383C52.3806 28.2099 52.1685 28.8433 51.7465 29.2851C51.3223 29.727 50.6993 29.9479 49.873 29.9479C49.0467 29.9479 48.4215 29.727 47.9995 29.2851C47.5753 28.8433 47.3654 28.2099 47.3654 27.383V22.0827C47.3654 21.2579 47.5753 20.6225 47.9995 20.1827C48.4215 19.7408 49.0467 19.5199 49.873 19.5199C50.6993 19.5199 51.3223 19.7408 51.7465 20.1827C52.1685 20.6225 52.3806 21.2579 52.3806 22.0827V23.0738H50.7899V21.9796C50.7899 21.6114 50.7103 21.3526 50.5535 21.2011C50.3944 21.0517 50.1845 20.9759 49.9194 20.9759C49.6543 20.9759 49.4422 21.0517 49.2831 21.2011C49.1263 21.3526 49.0467 21.6114 49.0467 21.9796V27.4861C49.0467 27.8543 49.1263 28.1131 49.2831 28.2583C49.4422 28.4035 49.6543 28.4771 49.9194 28.4771C50.1845 28.4771 50.3944 28.4035 50.5535 28.2583C50.7103 28.1131 50.7899 27.8543 50.7899 27.4861V26.03H52.3806ZM55.087 29.8301H53.4057V19.6356H55.087V24.0059H56.9981V19.6356H58.7125V29.8301H56.9981V25.4619H55.087V29.8301ZM67.183 26.03V27.383C67.183 28.2099 66.9731 28.8433 66.5489 29.2851C66.127 29.727 65.5017 29.9479 64.6754 29.9479C63.8492 29.9479 63.2261 29.727 62.8019 29.2851C62.38 28.8433 62.1679 28.2099 62.1679 27.383V22.0827C62.1679 21.2579 62.38 20.6225 62.8019 20.1827C63.2261 19.7408 63.8492 19.5199 64.6754 19.5199C65.5017 19.5199 66.127 19.7408 66.5489 20.1827C66.9731 20.6225 67.183 21.2579 67.183 22.0827V23.0738H65.5945V21.9796C65.5945 21.6114 65.515 21.3526 65.3559 21.2011C65.1991 21.0517 64.987 20.9759 64.7218 20.9759C64.4567 20.9759 64.2446 21.0517 64.0878 21.2011C63.9287 21.3526 63.8492 21.6114 63.8492 21.9796V27.4861C63.8492 27.8543 63.9287 28.1131 64.0878 28.2583C64.2446 28.4035 64.4567 28.4771 64.7218 28.4771C64.987 28.4771 65.1991 28.4035 65.3559 28.2583C65.515 28.1131 65.5945 27.8543 65.5945 27.4861V26.03H67.183ZM69.7525 27.4861C69.7525 27.8543 69.832 28.1152 69.9911 28.2646C70.1479 28.4161 70.36 28.4898 70.6251 28.4898C70.8903 28.4898 71.1023 28.4161 71.2592 28.2646C71.4183 28.1152 71.4956 27.8543 71.4956 27.4861V21.9796C71.4956 21.6114 71.4183 21.3526 71.2592 21.2011C71.1023 21.0517 70.8903 20.9759 70.6251 20.9759C70.36 20.9759 70.1479 21.0517 69.9911 21.2011C69.832 21.3526 69.7525 21.6114 69.7525 21.9796V27.4861ZM68.0712 22.0827C68.0712 21.2579 68.2899 20.6225 68.7295 20.1827C69.167 19.7408 69.7989 19.5199 70.6251 19.5199C71.4514 19.5199 72.0833 19.7408 72.5207 20.1827C72.9604 20.6225 73.1791 21.2579 73.1791 22.0827V27.383C73.1791 28.2099 72.9604 28.8433 72.5207 29.2851C72.0833 29.727 71.4514 29.9479 70.6251 29.9479C69.7989 29.9479 69.167 29.727 68.7295 29.2851C68.2899 28.8433 68.0712 28.2099 68.0712 27.383V22.0827ZM77.7811 29.8301C77.7612 29.7628 77.7413 29.6996 77.7215 29.6407C77.6994 29.5839 77.6817 29.5103 77.6662 29.4219C77.6508 29.3356 77.6419 29.2241 77.6375 29.0873C77.6309 28.9527 77.6287 28.7822 77.6287 28.5781V26.9769C77.6287 26.4993 77.5425 26.1647 77.368 25.9711C77.1956 25.7775 76.9151 25.6808 76.5284 25.6808H75.9474V29.8301H74.2639V19.6356H76.8024C77.6795 19.6356 78.3136 19.8292 78.7068 20.2185C79.1001 20.6056 79.2967 21.1948 79.2967 21.9796V22.7813C79.2967 23.8291 78.9278 24.5193 78.1943 24.8496C78.6229 25.0138 78.9167 25.2852 79.0736 25.6576C79.2326 26.0321 79.31 26.4866 79.31 27.019V28.5929C79.31 28.8454 79.321 29.0663 79.3409 29.2557C79.363 29.445 79.4138 29.6365 79.4955 29.8301H77.7811ZM75.9474 21.0917V24.2226H76.6035C76.9195 24.2226 77.1669 24.1448 77.3459 23.9912C77.5248 23.8354 77.6132 23.5535 77.6132 23.1453V22.1416C77.6132 21.7713 77.5447 21.5041 77.4077 21.34C77.2686 21.1737 77.052 21.0917 76.7582 21.0917H75.9474ZM82.0937 23.9322H84.4047V25.3883H82.0937V28.374H84.999V29.8301H80.4124V19.6356H84.999V21.0917H82.0937V23.9322Z" fill="#636266"/>
<path d="M10.0956 44.4931C10.0956 44.7582 10.0029 44.9834 9.81948 45.1664C9.65157 45.3369 9.43064 45.4231 9.15448 45.4231C8.87831 45.4231 8.6618 45.339 8.50273 45.1727C8.31935 44.9855 8.22656 44.7477 8.22656 44.4615H8.72808C8.72808 44.6278 8.77447 44.7582 8.86726 44.855C8.94238 44.9287 9.03738 44.9665 9.15448 44.9665C9.28041 44.9665 9.38204 44.9265 9.46157 44.8487C9.54553 44.7645 9.5875 44.6572 9.5875 44.5247C9.5875 44.411 9.56099 44.3143 9.50576 44.2301C9.45052 44.148 9.35552 44.0702 9.21855 44.0007L8.79657 43.7882C8.58889 43.683 8.44087 43.5589 8.35249 43.4137C8.28621 43.298 8.25307 43.1549 8.25307 42.9887C8.25307 42.732 8.34145 42.5131 8.52261 42.3343C8.68389 42.1723 8.8982 42.0902 9.1611 42.0902C9.42843 42.0902 9.63832 42.168 9.79297 42.3217C9.96971 42.4879 10.0581 42.7256 10.0581 43.0328H9.55657C9.55657 42.8582 9.5168 42.7298 9.43727 42.6457C9.36657 42.572 9.27378 42.5342 9.1611 42.5342C9.04401 42.5342 8.95122 42.5699 8.87831 42.6394C8.79878 42.7193 8.75901 42.8224 8.75901 42.9529C8.75901 43.0434 8.77889 43.1233 8.81645 43.1885C8.86285 43.2685 8.95122 43.3379 9.08599 43.4011L9.49913 43.6073C9.71564 43.7104 9.8703 43.8345 9.95646 43.9755C10.0492 44.1123 10.0956 44.2848 10.0956 44.4931ZM12.3425 42.8898C12.3735 43.1023 12.3889 43.3905 12.3889 43.7567C12.3889 44.1228 12.3735 44.411 12.3425 44.6236C12.3094 44.8361 12.2475 45.0023 12.1569 45.1222C12.0067 45.3221 11.7769 45.4231 11.4676 45.4231C11.1627 45.4231 10.9352 45.3221 10.785 45.1222C10.6922 45.0023 10.6303 44.834 10.5972 44.6215C10.5618 44.4068 10.5463 44.1186 10.5463 43.7567C10.5463 43.3948 10.5618 43.1065 10.5972 42.8919C10.6303 42.6794 10.6922 42.511 10.785 42.3911C10.9352 42.1912 11.1627 42.0902 11.4676 42.0902C11.7769 42.0902 12.0067 42.1912 12.1569 42.3911C12.2475 42.511 12.3094 42.6772 12.3425 42.8898ZM11.8587 44.4868C11.8741 44.3332 11.8808 44.0891 11.8808 43.7567C11.8808 43.4242 11.8741 43.1801 11.8587 43.0265C11.8432 42.8729 11.8101 42.7593 11.7548 42.6836C11.6886 42.5931 11.5936 42.5468 11.4676 42.5468C11.3461 42.5468 11.2511 42.5931 11.1848 42.6836C11.1318 42.7593 11.0943 42.875 11.0788 43.0328C11.0611 43.1907 11.0545 43.4326 11.0545 43.7567C11.0545 44.0807 11.0611 44.3227 11.0788 44.4805C11.0943 44.6383 11.1318 44.754 11.1848 44.8298C11.2511 44.9202 11.3461 44.9665 11.4676 44.9665C11.5936 44.9665 11.6886 44.9202 11.7548 44.8298C11.8101 44.754 11.8432 44.6404 11.8587 44.4868ZM14.1299 42.5342H13.6283V45.3726H13.1224V42.5342H12.7512V42.1407H13.1224V41.8293C13.1224 41.5053 13.2152 41.2654 13.403 41.1118C13.5665 40.975 13.8095 40.9056 14.1299 40.9056V41.3622C13.7963 41.3622 13.6283 41.5242 13.6283 41.8482V42.1407H14.1299V42.5342ZM15.7405 45.3726C15.4024 45.3726 15.155 45.3053 14.9959 45.1727C14.8081 45.0191 14.7131 44.7772 14.7131 44.4489V42.5342H14.3442V42.1407H14.7131V41.2549H15.2213V42.1407H15.7228V42.5342H15.2213V44.43C15.2213 44.754 15.3936 44.916 15.7405 44.916V45.3726ZM19.1384 42.1407L18.4535 45.3726H17.9409L17.5013 43.0076L17.0749 45.3726H16.5623L15.8907 42.1407H16.4673L16.8385 44.5731L17.2693 42.1407H17.7266L18.184 44.5731L18.5618 42.1407H19.1384ZM21.2107 45.3726H20.7291V45.0844C20.6783 45.1685 20.6164 45.2422 20.5413 45.3032C20.4375 45.3831 20.3093 45.4231 20.1591 45.4231C19.9337 45.4231 19.7482 45.3411 19.6023 45.179C19.4632 45.0212 19.3947 44.7793 19.3947 44.4552C19.3947 44.1396 19.4897 43.8955 19.6819 43.7251C19.8498 43.5799 20.0796 43.5063 20.3712 43.5063H20.7048V42.995C20.7048 42.6878 20.5766 42.5342 20.3226 42.5342C20.2254 42.5342 20.1414 42.5699 20.0707 42.6394C19.9912 42.7235 19.9514 42.8477 19.9514 43.0139H19.4455C19.4455 42.7235 19.5272 42.4942 19.6951 42.328C19.8542 42.1702 20.0619 42.0902 20.3226 42.0902C20.5943 42.0902 20.8042 42.1659 20.9544 42.3153C21.1268 42.4942 21.2107 42.732 21.2107 43.0265V45.3726ZM20.7048 44.4742V43.8745H20.4154C20.2563 43.8745 20.137 43.9145 20.053 43.9944C19.9514 44.0849 19.9028 44.2322 19.9028 44.4363C19.9028 44.7982 20.0332 44.9792 20.2961 44.9792C20.4176 44.9792 20.517 44.9329 20.5921 44.8382C20.6672 44.7456 20.7048 44.6236 20.7048 44.4742ZM23.1483 42.5784H22.9981C22.8213 42.5784 22.6799 42.631 22.5717 42.7362C22.4634 42.8435 22.4082 42.9866 22.4082 43.1696V45.3726H21.9V42.1407H22.3905V42.4837C22.4369 42.4016 22.512 42.3238 22.6158 42.2522C22.7705 42.1449 22.9472 42.0902 23.1483 42.0902V42.5784ZM25.2847 43.8745H23.9503C23.9503 44.3984 23.9945 44.7182 24.0828 44.8298C24.1447 44.9202 24.2397 44.9665 24.37 44.9665C24.4916 44.9665 24.5866 44.9244 24.6595 44.8424C24.7302 44.7582 24.7655 44.6341 24.7655 44.4679H25.2715C25.2692 44.7666 25.1809 45.0065 25.0085 45.1854C24.8539 45.3432 24.6418 45.4231 24.37 45.4231C24.0939 45.4231 23.8796 45.339 23.7249 45.1727C23.6123 45.0528 23.5349 44.8803 23.4952 44.6551C23.4554 44.43 23.4355 44.1312 23.4355 43.7567C23.4355 43.3779 23.4554 43.077 23.4929 42.8561C23.5305 42.6331 23.6056 42.4605 23.7183 42.3406C23.873 42.1744 24.085 42.0902 24.3568 42.0902C24.6285 42.0902 24.8428 42.1744 24.9975 42.3406C25.1146 42.4605 25.1919 42.6373 25.2295 42.8708C25.267 43.1044 25.2847 43.4389 25.2847 43.8745ZM24.7721 43.4936C24.7721 43.0497 24.7302 42.7761 24.6462 42.6772C24.5799 42.591 24.4827 42.5468 24.3568 42.5468C24.2375 42.5468 24.1425 42.591 24.0762 42.6772C23.9923 42.7761 23.9503 43.0497 23.9503 43.4936H24.7721ZM28.7578 45.3726H28.2607V45.1222C28.2209 45.2064 28.1546 45.2716 28.0684 45.3221C27.9536 45.3895 27.8387 45.4231 27.7172 45.4231C27.494 45.4231 27.3151 45.3411 27.1781 45.179C27.0809 45.0675 27.0168 44.9034 26.9859 44.693C26.955 44.4805 26.9395 44.1691 26.9395 43.7567C26.9395 43.3443 26.955 43.0328 26.9859 42.8182C27.0168 42.6036 27.0809 42.4395 27.1781 42.328C27.3106 42.1702 27.4918 42.0902 27.7172 42.0902C27.8409 42.0902 27.958 42.1218 28.0684 42.1849C28.1259 42.2185 28.1855 42.2775 28.2496 42.3658V40.9308H28.7578V45.3726ZM28.2496 44.4931V43.0139C28.2496 42.8519 28.2076 42.7298 28.1237 42.6457C28.0574 42.5805 27.969 42.5468 27.8608 42.5468C27.7437 42.5468 27.6509 42.591 27.5846 42.6772C27.5316 42.7446 27.494 42.854 27.4786 43.0055C27.4609 43.157 27.4543 43.4074 27.4543 43.7567C27.4543 44.1059 27.4609 44.3563 27.4786 44.5078C27.494 44.6593 27.5316 44.7687 27.5846 44.8361C27.6509 44.9223 27.7437 44.9665 27.8608 44.9665C27.969 44.9665 28.0574 44.9329 28.1237 44.8676C28.2076 44.7835 28.2496 44.6593 28.2496 44.4931ZM31.2123 43.8745H29.8779C29.8779 44.3984 29.9221 44.7182 30.0104 44.8298C30.0723 44.9202 30.1695 44.9665 30.2976 44.9665C30.4192 44.9665 30.5164 44.9244 30.5871 44.8424C30.6578 44.7582 30.6931 44.6341 30.6931 44.4679H31.2013C31.1968 44.7666 31.1085 45.0065 30.9384 45.1854C30.7837 45.3432 30.5694 45.4231 30.2976 45.4231C30.0215 45.4231 29.8072 45.339 29.6525 45.1727C29.5399 45.0528 29.4647 44.8803 29.425 44.6551C29.3852 44.43 29.3653 44.1312 29.3653 43.7567C29.3653 43.3779 29.383 43.077 29.4205 42.8561C29.4581 42.6331 29.5332 42.4605 29.6459 42.3406C29.8006 42.1744 30.0149 42.0902 30.2866 42.0902C30.5583 42.0902 30.7704 42.1744 30.9251 42.3406C31.0422 42.4605 31.1195 42.6373 31.1571 42.8708C31.1946 43.1044 31.2123 43.4389 31.2123 43.8745ZM30.6997 43.4936C30.6997 43.0497 30.6578 42.7761 30.5738 42.6772C30.5075 42.591 30.4103 42.5468 30.2866 42.5468C30.1651 42.5468 30.0701 42.591 30.0038 42.6772C29.9199 42.7761 29.8779 43.0497 29.8779 43.4936H30.6997ZM33.5012 44.4931C33.5012 44.7582 33.4084 44.9834 33.225 45.1664C33.0571 45.3369 32.8362 45.4231 32.56 45.4231C32.2838 45.4231 32.0673 45.339 31.9082 45.1727C31.7249 44.9855 31.6321 44.7477 31.6321 44.4615H32.1336C32.1336 44.6278 32.18 44.7582 32.2728 44.855C32.3479 44.9287 32.4429 44.9665 32.56 44.9665C32.6859 44.9665 32.7875 44.9265 32.8671 44.8487C32.951 44.7645 32.993 44.6572 32.993 44.5247C32.993 44.411 32.9665 44.3143 32.9113 44.2301C32.8582 44.148 32.761 44.0702 32.6241 44.0007L32.2043 43.7882C31.9944 43.683 31.8464 43.5589 31.758 43.4137C31.6917 43.298 31.6586 43.1549 31.6586 42.9887C31.6586 42.732 31.747 42.5131 31.9281 42.3343C32.0916 42.1723 32.3037 42.0902 32.5666 42.0902C32.8339 42.0902 33.046 42.168 33.2007 42.3217C33.3752 42.4879 33.4636 42.7256 33.4636 43.0328H32.9621C32.9621 42.8582 32.9223 42.7298 32.8428 42.6457C32.7721 42.572 32.6793 42.5342 32.5666 42.5342C32.4495 42.5342 32.3567 42.5699 32.2838 42.6394C32.2065 42.7193 32.1667 42.8224 32.1667 42.9529C32.1667 43.0434 32.1844 43.1233 32.222 43.1885C32.2684 43.2685 32.3589 43.3379 32.4915 43.4011L32.9046 43.6073C33.1234 43.7104 33.2758 43.8345 33.362 43.9755C33.4548 44.1123 33.5012 44.2848 33.5012 44.4931ZM34.5594 45.3726H34.0513V42.1407H34.5594V45.3726ZM34.6036 41.5663H34.0071V40.9813H34.6036V41.5663ZM36.9853 42.1407V45.4463C36.9853 45.8713 36.8969 46.1722 36.7223 46.351C36.5633 46.5173 36.349 46.6014 36.0816 46.6014C35.8077 46.6014 35.589 46.5236 35.4299 46.37C35.2686 46.208 35.1869 45.9744 35.1869 45.6714H35.695C35.695 45.8503 35.7304 45.9786 35.8011 46.0586C35.8718 46.1301 35.9623 46.1638 36.075 46.1638C36.1899 46.1638 36.2805 46.1259 36.3512 46.0459C36.4351 45.9576 36.4771 45.7703 36.4771 45.4778V44.9855C36.4197 45.0696 36.3578 45.1285 36.2959 45.1664C36.2032 45.2337 36.0905 45.2653 35.9579 45.2653C35.7348 45.2653 35.558 45.1875 35.4255 45.0297C35.3238 44.916 35.2554 44.7624 35.22 44.5646C35.1847 44.3669 35.167 44.0702 35.167 43.6746C35.167 43.2811 35.1847 42.9844 35.22 42.7888C35.2554 42.5952 35.3238 42.4374 35.4255 42.3217C35.5625 42.168 35.7392 42.0902 35.9579 42.0902C36.0949 42.0902 36.212 42.1239 36.307 42.1912C36.3799 42.2375 36.4396 42.2943 36.4904 42.3658V42.1407H36.9853ZM36.4771 44.35V43.0139C36.4771 42.8519 36.4351 42.7298 36.3512 42.6457C36.2849 42.5805 36.1965 42.5468 36.0883 42.5468C35.9712 42.5468 35.8806 42.591 35.8121 42.6772C35.7591 42.7446 35.7237 42.8477 35.7061 42.9866C35.6906 43.1254 35.6818 43.3569 35.6818 43.6809C35.6818 44.007 35.6906 44.2385 35.7061 44.3774C35.7237 44.5162 35.7591 44.6215 35.8121 44.693C35.8872 44.7793 35.98 44.8234 36.0883 44.8234C36.1921 44.8234 36.2805 44.7877 36.3512 44.7182C36.4351 44.6341 36.4771 44.512 36.4771 44.35ZM39.484 45.3726H38.9781V42.995C38.9781 42.854 38.9405 42.7446 38.8676 42.6688C38.7947 42.591 38.7019 42.5531 38.5892 42.5531C38.4765 42.5531 38.3838 42.591 38.3131 42.6688C38.2424 42.7446 38.207 42.854 38.207 42.995V45.3726H37.6989V42.1407H38.1871V42.3911C38.2335 42.3111 38.2998 42.2459 38.3882 42.1912C38.4964 42.1239 38.6135 42.0902 38.7395 42.0902C38.9692 42.0902 39.1526 42.1702 39.2918 42.328C39.4199 42.4689 39.484 42.692 39.484 42.995V45.3726Z" fill="#20CE99"/>
<path d="M44.0538 45.3712H43.5081L43.2076 44.9146C43.0618 45.085 42.916 45.2134 42.7702 45.2955C42.6244 45.3796 42.4454 45.4217 42.2378 45.4217C41.9395 45.4217 41.6965 45.3207 41.5043 45.1208C41.3121 44.9209 41.2148 44.6537 41.2148 44.317C41.2148 44.0624 41.2723 43.831 41.3872 43.6185C41.5021 43.406 41.6854 43.1808 41.9373 42.9452C41.7407 42.6737 41.6059 42.4633 41.533 42.3139C41.4601 42.1645 41.4225 42.0025 41.4225 41.8279C41.4225 41.5438 41.4998 41.3166 41.6567 41.144C41.8136 40.9715 42.0212 40.8852 42.2819 40.8852C42.5603 40.8852 42.7768 40.9673 42.9271 41.1314C43.0773 41.2955 43.1524 41.5101 43.1524 41.7711C43.1524 42.0214 43.1038 42.2382 43.0044 42.4212C42.9072 42.6022 42.7459 42.8021 42.525 43.0188L43.2076 44.0477C43.338 43.8036 43.4175 43.4901 43.4463 43.1135H43.897C43.8638 43.6458 43.729 44.1045 43.4904 44.4917L44.0538 45.3712ZM42.9514 44.5169L42.1869 43.3491C41.8644 43.669 41.7053 43.9783 41.7053 44.2729C41.7053 44.4727 41.7561 44.6369 41.8622 44.7652C41.966 44.8936 42.1052 44.9588 42.2819 44.9588C42.5073 44.9588 42.7304 44.8115 42.9514 44.5169ZM42.6818 41.7837C42.6818 41.6553 42.6465 41.548 42.5714 41.466C42.4985 41.3818 42.4035 41.3418 42.2864 41.3418C42.1626 41.3418 42.0654 41.386 41.9969 41.4786C41.9262 41.5691 41.8931 41.6827 41.8931 41.8152C41.8931 42.0025 42.0168 42.2676 42.2687 42.6127C42.4145 42.4633 42.5206 42.3308 42.5846 42.215C42.6487 42.0972 42.6818 41.9541 42.6818 41.7837ZM48.6602 45.3712H48.1521V42.9936C48.1521 42.8526 48.1168 42.7432 48.0461 42.6674C47.9754 42.5896 47.8826 42.5517 47.7699 42.5517C47.6572 42.5517 47.5666 42.5896 47.4959 42.6674C47.423 42.7432 47.3877 42.8526 47.3877 42.9936V45.3712H46.8817V42.9936C46.8817 42.8526 46.8442 42.7432 46.7713 42.6674C46.6984 42.5896 46.6056 42.5517 46.4929 42.5517C46.3802 42.5517 46.2874 42.5896 46.2167 42.6674C46.146 42.7432 46.1107 42.8526 46.1107 42.9936V45.3712H45.6025V42.1393H46.0908V42.3897C46.1372 42.3097 46.2035 42.2445 46.2919 42.1898C46.4001 42.1224 46.5172 42.0888 46.6431 42.0888C46.7691 42.0888 46.8862 42.1203 46.9966 42.1835C47.1071 42.2466 47.1955 42.3265 47.264 42.4254C47.3457 42.3223 47.4319 42.2445 47.5202 42.1898C47.6285 42.1224 47.7522 42.0888 47.8892 42.0888C48.1411 42.0888 48.3355 42.1687 48.4725 42.3265C48.5984 42.4633 48.6602 42.6864 48.6602 42.9936V45.3712ZM51.0176 45.3712H50.5337V45.0829C50.4829 45.1671 50.4211 45.2408 50.346 45.3018C50.2421 45.3817 50.114 45.4217 49.9637 45.4217C49.7384 45.4217 49.5528 45.3396 49.407 45.1776C49.2678 45.0198 49.1993 44.7778 49.1993 44.4538C49.1993 44.1382 49.2943 43.8941 49.4865 43.7237C49.6544 43.5785 49.8842 43.5049 50.1758 43.5049H50.5094V42.9936C50.5094 42.6864 50.3813 42.5327 50.1272 42.5327C50.03 42.5327 49.9483 42.5685 49.8754 42.638C49.7958 42.7221 49.7561 42.8463 49.7561 43.0125H49.2501C49.2501 42.7221 49.3341 42.4928 49.4998 42.3265C49.6589 42.1687 49.8687 42.0888 50.1272 42.0888C50.399 42.0888 50.6089 42.1645 50.7591 42.3139C50.9314 42.4928 51.0176 42.7305 51.0176 43.0251V45.3712ZM50.5094 44.4727V43.8731H50.22C50.061 43.8731 49.9416 43.9131 49.8577 43.993C49.7561 44.0835 49.7075 44.2308 49.7075 44.4349C49.7075 44.7968 49.8378 44.9777 50.1007 44.9777C50.2222 44.9777 50.3217 44.9314 50.3968 44.8368C50.4719 44.7442 50.5094 44.6221 50.5094 44.4727ZM52.9529 42.5769H52.8027C52.6282 42.5769 52.4846 42.6295 52.3763 42.7347C52.2681 42.8421 52.2128 42.9851 52.2128 43.1682V45.3712H51.7069V42.1393H52.1952V42.4823C52.2415 42.4002 52.3167 42.3223 52.4205 42.2508C52.5752 42.1435 52.7519 42.0888 52.9529 42.0888V42.5769ZM55.4539 45.3712H54.8883L54.2697 43.8478L53.9184 44.4033V45.3712H53.4103V40.9294H53.9184V43.6732L54.8397 42.1393H55.3788L54.5878 43.3996L55.4539 45.3712ZM57.5969 43.8731H56.2625C56.2625 44.397 56.3045 44.7168 56.3929 44.8283C56.4569 44.9188 56.5519 44.9651 56.6823 44.9651C56.8016 44.9651 56.8988 44.923 56.9695 44.841C57.0402 44.7568 57.0755 44.6327 57.0755 44.4664H57.5837C57.5793 44.7652 57.4909 45.0051 57.3208 45.1839C57.1661 45.3417 56.954 45.4217 56.6823 45.4217C56.4061 45.4217 56.1896 45.3375 56.0349 45.1713C55.9223 45.0514 55.8472 44.8788 55.8074 44.6537C55.7676 44.4286 55.7477 44.1298 55.7477 43.7552C55.7477 43.3765 55.7676 43.0756 55.8052 42.8547C55.8427 42.6316 55.9179 42.4591 56.0305 42.3392C56.1852 42.1729 56.3973 42.0888 56.669 42.0888C56.9408 42.0888 57.1529 42.1729 57.3075 42.3392C57.4246 42.4591 57.5019 42.6359 57.5395 42.8694C57.5771 43.103 57.5969 43.4375 57.5969 43.8731ZM57.0822 43.4922C57.0822 43.0483 57.0402 42.7747 56.9562 42.6758C56.89 42.5896 56.795 42.5454 56.669 42.5454C56.5475 42.5454 56.4547 42.5896 56.3862 42.6758C56.3023 42.7747 56.2625 43.0483 56.2625 43.4922H57.0822ZM59.3313 45.3712C58.9932 45.3712 58.7458 45.3039 58.5867 45.1713C58.3989 45.0177 58.3039 44.7757 58.3039 44.4475V42.5327H57.935V42.1393H58.3039V41.2534H58.8121V42.1393H59.3136V42.5327H58.8121V44.4286C58.8121 44.7526 58.9866 44.9146 59.3313 44.9146V45.3712ZM60.3232 45.3712H59.8151V42.1393H60.3232V45.3712ZM60.3652 41.5649H59.7709V40.9799H60.3652V41.5649ZM62.822 45.3712H62.316V42.9936C62.316 42.8526 62.2785 42.7432 62.2056 42.6674C62.1327 42.5896 62.0399 42.5517 61.9272 42.5517C61.8145 42.5517 61.7217 42.5896 61.651 42.6674C61.5803 42.7432 61.545 42.8526 61.545 42.9936V45.3712H61.0368V42.1393H61.5251V42.3897C61.5715 42.3097 61.6378 42.2445 61.7262 42.1898C61.8344 42.1224 61.9515 42.0888 62.0774 42.0888C62.3072 42.0888 62.4906 42.1687 62.6276 42.3265C62.7579 42.4675 62.822 42.6906 62.822 42.9936V45.3712ZM65.2235 42.1393V45.4449C65.2235 45.8699 65.1351 46.1708 64.9606 46.3496C64.8015 46.5158 64.5872 46.6 64.3199 46.6C64.0437 46.6 63.8272 46.5222 63.6681 46.3686C63.5069 46.2065 63.4251 45.973 63.4251 45.67H63.931C63.931 45.8488 63.9664 45.9772 64.0393 46.0572C64.11 46.1287 64.2006 46.1624 64.3133 46.1624C64.4281 46.1624 64.5187 46.1245 64.5894 46.0445C64.6734 45.9562 64.7154 45.7689 64.7154 45.4764V44.984C64.6557 45.0682 64.5961 45.1271 64.5342 45.165C64.4414 45.2323 64.3287 45.2639 64.1962 45.2639C63.973 45.2639 63.7963 45.186 63.6615 45.0282C63.5621 44.9146 63.4936 44.761 63.4583 44.5632C63.4229 44.3654 63.4052 44.0688 63.4052 43.6732C63.4052 43.2797 63.4229 42.983 63.4583 42.7873C63.4936 42.5938 63.5621 42.436 63.6615 42.3202C63.8007 42.1666 63.9774 42.0888 64.1962 42.0888C64.3331 42.0888 64.4502 42.1224 64.5452 42.1898C64.6181 42.2361 64.6778 42.2929 64.7286 42.3644V42.1393H65.2235ZM64.7154 44.3486V43.0125C64.7154 42.8505 64.6734 42.7284 64.5894 42.6443C64.5231 42.579 64.4348 42.5454 64.3265 42.5454C64.2094 42.5454 64.1188 42.5896 64.0504 42.6758C63.9973 42.7432 63.962 42.8463 63.9443 42.9851C63.9288 43.124 63.92 43.3555 63.92 43.6795C63.92 44.0056 63.9288 44.2371 63.9443 44.376C63.962 44.5148 63.9973 44.62 64.0504 44.6916C64.1255 44.7778 64.2183 44.822 64.3265 44.822C64.4304 44.822 64.5187 44.7863 64.5894 44.7168C64.6734 44.6327 64.7154 44.5106 64.7154 44.3486ZM68.807 44.4917C68.807 44.7568 68.7164 44.9819 68.5308 45.165C68.3652 45.3354 68.1442 45.4217 67.8681 45.4217C67.5919 45.4217 67.3754 45.3375 67.2163 45.1713C67.0329 44.984 66.9401 44.7463 66.9401 44.4601H67.4417C67.4417 44.6263 67.4881 44.7568 67.5786 44.8536C67.6538 44.9272 67.751 44.9651 67.8681 44.9651C67.9918 44.9651 68.0956 44.9251 68.1751 44.8473C68.2569 44.7631 68.2989 44.6558 68.2989 44.5232C68.2989 44.4096 68.2724 44.3128 68.2193 44.2287C68.1641 44.1466 68.0669 44.0688 67.9299 43.9993L67.5101 43.7868C67.3003 43.6816 67.1522 43.5575 67.0661 43.4123C66.9976 43.2965 66.9644 43.1535 66.9644 42.9872C66.9644 42.7305 67.055 42.5117 67.234 42.3329C67.3975 42.1708 67.6096 42.0888 67.8747 42.0888C68.142 42.0888 68.3519 42.1666 68.5065 42.3202C68.6811 42.4865 68.7695 42.7242 68.7695 43.0314H68.2679C68.2679 42.8568 68.2282 42.7284 68.1486 42.6443C68.0779 42.5706 67.9874 42.5327 67.8747 42.5327C67.7576 42.5327 67.6626 42.5685 67.5919 42.638C67.5124 42.7179 67.4726 42.821 67.4726 42.9515C67.4726 43.0419 67.4903 43.1219 67.53 43.1871C67.5742 43.2671 67.6648 43.3365 67.7996 43.3996L68.2127 43.6059C68.4292 43.709 68.5817 43.8331 68.67 43.9741C68.7606 44.1108 68.807 44.2834 68.807 44.4917ZM71.0539 42.8883C71.0848 43.1009 71.1003 43.3891 71.1003 43.7552C71.1003 44.1214 71.0848 44.4096 71.0539 44.6221C71.023 44.8347 70.9611 45.0009 70.8683 45.1208C70.7181 45.3207 70.4883 45.4217 70.179 45.4217C69.8741 45.4217 69.6466 45.3207 69.4963 45.1208C69.4057 45.0009 69.3417 44.8326 69.3085 44.62C69.2754 44.4054 69.2577 44.1172 69.2577 43.7552C69.2577 43.3933 69.2754 43.1051 69.3085 42.8904C69.3417 42.6779 69.4057 42.5096 69.4963 42.3897C69.6466 42.1898 69.8741 42.0888 70.179 42.0888C70.4883 42.0888 70.7181 42.1898 70.8683 42.3897C70.9611 42.5096 71.023 42.6758 71.0539 42.8883ZM70.5723 44.4854C70.5855 44.3318 70.5944 44.0877 70.5944 43.7552C70.5944 43.4228 70.5855 43.1787 70.5723 43.0251C70.5568 42.8715 70.5214 42.7579 70.4684 42.6821C70.4021 42.5917 70.3049 42.5454 70.179 42.5454C70.0575 42.5454 69.9647 42.5917 69.8984 42.6821C69.8432 42.7579 69.8078 42.8736 69.7902 43.0314C69.7747 43.1892 69.7659 43.4312 69.7659 43.7552C69.7659 44.0793 69.7747 44.3213 69.7902 44.4791C69.8078 44.6369 69.8432 44.7526 69.8984 44.8283C69.9647 44.9188 70.0575 44.9651 70.179 44.9651C70.3049 44.9651 70.4021 44.9188 70.4684 44.8283C70.5214 44.7526 70.5568 44.639 70.5723 44.4854ZM72.6799 45.3712C72.3706 45.3712 72.1365 45.3039 71.9774 45.1713C71.7852 45.0135 71.6902 44.7715 71.6902 44.4475V40.9294H72.1983V44.4286C72.1983 44.7526 72.3574 44.9146 72.6799 44.9146V45.3712ZM74.9047 45.3712H74.4165V45.1208C74.3701 45.2008 74.3038 45.266 74.2154 45.3207C74.1072 45.388 73.9901 45.4217 73.8641 45.4217C73.6344 45.4217 73.451 45.3417 73.314 45.1839C73.1837 45.043 73.1196 44.8199 73.1196 44.5169V42.1393H73.6255V44.5169C73.6255 44.6621 73.6631 44.7736 73.736 44.8494C73.8089 44.9272 73.9017 44.9651 74.0144 44.9651C74.1271 44.9651 74.2198 44.9272 74.2905 44.8494C74.3612 44.7736 74.3966 44.6621 74.3966 44.5169V42.1393H74.9047V45.3712ZM76.765 45.3712C76.427 45.3712 76.1795 45.3039 76.0204 45.1713C75.8326 45.0177 75.7376 44.7757 75.7376 44.4475V42.5327H75.3687V42.1393H75.7376V41.2534H76.2458V42.1393H76.7473V42.5327H76.2458V44.4286C76.2458 44.7526 76.4181 44.9146 76.765 44.9146V45.3712ZM77.757 45.3712H77.2488V42.1393H77.757V45.3712ZM77.7989 41.5649H77.2046V40.9799H77.7989V41.5649ZM80.1651 42.8883C80.196 43.1009 80.2115 43.3891 80.2115 43.7552C80.2115 44.1214 80.196 44.4096 80.1651 44.6221C80.1342 44.8347 80.0723 45.0009 79.9817 45.1208C79.8293 45.3207 79.5995 45.4217 79.2902 45.4217C78.9853 45.4217 78.7578 45.3207 78.6075 45.1208C78.517 45.0009 78.4529 44.8326 78.4198 44.62C78.3866 44.4054 78.3712 44.1172 78.3712 43.7552C78.3712 43.3933 78.3866 43.1051 78.4198 42.8904C78.4529 42.6779 78.517 42.5096 78.6075 42.3897C78.7578 42.1898 78.9853 42.0888 79.2902 42.0888C79.5995 42.0888 79.8293 42.1898 79.9817 42.3897C80.0723 42.5096 80.1342 42.6758 80.1651 42.8883ZM79.6835 44.4854C79.6967 44.3318 79.7056 44.0877 79.7056 43.7552C79.7056 43.4228 79.6967 43.1787 79.6835 43.0251C79.668 42.8715 79.6349 42.7579 79.5796 42.6821C79.5134 42.5917 79.4162 42.5454 79.2902 42.5454C79.1709 42.5454 79.0759 42.5917 79.0096 42.6821C78.9544 42.7579 78.9191 42.8736 78.9036 43.0314C78.8859 43.1892 78.8771 43.4312 78.8771 43.7552C78.8771 44.0793 78.8859 44.3213 78.9036 44.4791C78.9191 44.6369 78.9544 44.7526 79.0096 44.8283C79.0759 44.9188 79.1709 44.9651 79.2902 44.9651C79.4162 44.9651 79.5134 44.9188 79.5796 44.8283C79.6349 44.7526 79.668 44.639 79.6835 44.4854ZM82.613 45.3712H82.1049V42.9936C82.1049 42.8526 82.0673 42.7432 81.9944 42.6674C81.9215 42.5896 81.8287 42.5517 81.7161 42.5517C81.6034 42.5517 81.5128 42.5896 81.4399 42.6674C81.3692 42.7432 81.3338 42.8526 81.3338 42.9936V45.3712H80.8257V42.1393H81.3162V42.3897C81.3604 42.3097 81.4288 42.2445 81.515 42.1898C81.6255 42.1224 81.7426 42.0888 81.8663 42.0888C82.0961 42.0888 82.2794 42.1687 82.4186 42.3265C82.5468 42.4675 82.613 42.6906 82.613 42.9936V45.3712ZM84.9991 44.4917C84.9991 44.7568 84.9085 44.9819 84.7252 45.165C84.5572 45.3354 84.3363 45.4217 84.0601 45.4217C83.784 45.4217 83.5675 45.3375 83.4084 45.1713C83.225 44.984 83.1322 44.7463 83.1322 44.4601H83.6337C83.6337 44.6263 83.6801 44.7568 83.7729 44.8536C83.848 44.9272 83.9431 44.9651 84.0601 44.9651C84.1861 44.9651 84.2877 44.9251 84.3672 44.8473C84.4512 44.7631 84.4932 44.6558 84.4932 44.5232C84.4932 44.4096 84.4645 44.3128 84.4114 44.2287C84.3562 44.1466 84.2612 44.0688 84.122 43.9993L83.7022 43.7868C83.4946 43.6816 83.3465 43.5575 83.2582 43.4123C83.1919 43.2965 83.1587 43.1535 83.1587 42.9872C83.1587 42.7305 83.2471 42.5117 83.4283 42.3329C83.5896 42.1708 83.8039 42.0888 84.0668 42.0888C84.3341 42.0888 84.544 42.1666 84.6986 42.3202C84.8754 42.4865 84.9615 42.7242 84.9615 43.0314H84.4622C84.4622 42.8568 84.4225 42.7284 84.3429 42.6443C84.27 42.5706 84.1794 42.5327 84.0668 42.5327C83.9497 42.5327 83.8547 42.5685 83.784 42.638C83.7044 42.7179 83.6647 42.821 83.6647 42.9515C83.6647 43.0419 83.6846 43.1219 83.7221 43.1871C83.7685 43.2671 83.8569 43.3365 83.9917 43.3996L84.4048 43.6059C84.6213 43.709 84.7738 43.8331 84.8621 43.9741C84.9549 44.1108 84.9991 44.2834 84.9991 44.4917Z" fill="#20CE99"/>
</svg>
