<svg width="19" height="19" viewBox="0 0 19 19" fill="none" xmlns="http://www.w3.org/2000/svg">
<path d="M1.89375 9.4C2.11464 9.4 2.29375 9.57909 2.29375 9.8H0.89375C0.89375 10.3523 1.34148 10.8 1.89375 10.8V9.4ZM2.29375 9.8V1.8H0.89375V9.8H2.29375ZM2.29375 1.8C2.29375 2.02091 2.11466 2.2 1.89375 2.2V0.8C1.34146 0.8 0.89375 1.24771 0.89375 1.8H2.29375ZM1.89375 2.2H7.89375V0.8H1.89375V2.2ZM7.89375 2.2C7.67283 2.2 7.49375 2.02089 7.49375 1.8H8.89375C8.89375 1.24773 8.44607 0.8 7.89375 0.8V2.2ZM7.49375 1.8V9.8H8.89375V1.8H7.49375ZM7.49375 9.8C7.49375 9.5791 7.67285 9.4 7.89375 9.4V10.8C8.44605 10.8 8.89375 10.3523 8.89375 9.8H7.49375ZM7.89375 9.4H1.89375V10.8H7.89375V9.4ZM1.89375 17.4C2.11464 17.4 2.29375 17.5791 2.29375 17.8H0.89375C0.89375 18.3523 1.34148 18.8 1.89375 18.8V17.4ZM2.29375 17.8V13.8H0.89375V17.8H2.29375ZM2.29375 13.8C2.29375 14.0209 2.11464 14.2 1.89375 14.2V12.8C1.3415 12.8 0.89375 13.2477 0.89375 13.8H2.29375ZM1.89375 14.2H7.89375V12.8H1.89375V14.2ZM7.89375 14.2C7.67285 14.2 7.49375 14.0209 7.49375 13.8H8.89375C8.89375 13.2477 8.44605 12.8 7.89375 12.8V14.2ZM7.49375 13.8V17.8H8.89375V13.8H7.49375ZM7.49375 17.8C7.49375 17.5791 7.67285 17.4 7.89375 17.4V18.8C8.44605 18.8 8.89375 18.3523 8.89375 17.8H7.49375ZM7.89375 17.4H1.89375V18.8H7.89375V17.4ZM11.8938 17.4C12.1146 17.4 12.2937 17.5791 12.2937 17.8H10.8938C10.8938 18.3523 11.3414 18.8 11.8938 18.8V17.4ZM12.2937 17.8V9.8H10.8938V17.8H12.2937ZM12.2937 9.8C12.2937 10.0209 12.1146 10.2 11.8938 10.2V8.8C11.3415 8.8 10.8938 9.2477 10.8938 9.8H12.2937ZM11.8938 10.2H17.8937V8.8H11.8938V10.2ZM17.8937 10.2C17.6728 10.2 17.4937 10.0209 17.4937 9.8H18.8937C18.8937 9.2477 18.4461 8.8 17.8937 8.8V10.2ZM17.4937 9.8V17.8H18.8937V9.8H17.4937ZM17.4937 17.8C17.4937 17.5791 17.6728 17.4 17.8937 17.4V18.8C18.4461 18.8 18.8937 18.3523 18.8937 17.8H17.4937ZM17.8937 17.4H11.8938V18.8H17.8937V17.4ZM12.2937 1.8C12.2937 2.02089 12.1147 2.2 11.8938 2.2V0.8C11.3414 0.8 10.8938 1.24773 10.8938 1.8H12.2937ZM11.8938 2.2H17.8937V0.8H11.8938V2.2ZM17.8937 2.2C17.6728 2.2 17.4937 2.02089 17.4937 1.8H18.8937C18.8937 1.24773 18.4461 0.8 17.8937 0.8V2.2ZM17.4937 1.8V5.8H18.8937V1.8H17.4937ZM17.4937 5.8C17.4937 5.57911 17.6728 5.4 17.8937 5.4V6.8C18.4461 6.8 18.8937 6.35227 18.8937 5.8H17.4937ZM17.8937 5.4H11.8938V6.8H17.8937V5.4ZM11.8938 5.4C12.1147 5.4 12.2937 5.57911 12.2937 5.8H10.8938C10.8938 6.35228 11.3414 6.8 11.8938 6.8V5.4ZM12.2937 5.8V1.8H10.8938V5.8H12.2937Z" fill="#C2CFE0"/>
</svg>
