<svg width="20" height="19" viewBox="0 0 20 19" fill="none" xmlns="http://www.w3.org/2000/svg">
<path d="M1.89375 1.7H18.8937V0.3H1.89375V1.7ZM18.8937 1.7C18.6706 1.7 18.4937 1.5232 18.4937 1.3H19.8938C19.8938 0.749997 19.4437 0.3 18.8937 0.3V1.7ZM18.4937 1.3V7.3H19.8938V1.3H18.4937ZM18.4937 7.3C18.4937 7.0768 18.6706 6.9 18.8937 6.9V8.3C19.4437 8.3 19.8938 7.85 19.8938 7.3H18.4937ZM18.8937 6.9H1.89375V8.3H18.8937V6.9ZM1.89375 6.9C2.11695 6.9 2.29375 7.0768 2.29375 7.3H0.89375C0.89375 7.85 1.34375 8.3 1.89375 8.3V6.9ZM2.29375 7.3V1.3H0.89375V7.3H2.29375ZM2.29375 1.3C2.29375 1.5232 2.11695 1.7 1.89375 1.7V0.3C1.34375 0.3 0.89375 0.750001 0.89375 1.3H2.29375ZM1.89375 11.7H18.8937V10.3H1.89375V11.7ZM18.8937 11.7C18.6706 11.7 18.4937 11.5232 18.4937 11.3H19.8938C19.8938 10.75 19.4437 10.3 18.8937 10.3V11.7ZM18.4937 11.3V17.3H19.8938V11.3H18.4937ZM18.4937 17.3C18.4937 17.0768 18.6706 16.9 18.8937 16.9V18.3C19.4437 18.3 19.8938 17.85 19.8938 17.3H18.4937ZM18.8937 16.9H1.89375V18.3H18.8937V16.9ZM1.89375 16.9C2.11695 16.9 2.29375 17.0768 2.29375 17.3H0.89375C0.89375 17.85 1.34375 18.3 1.89375 18.3V16.9ZM2.29375 17.3V11.3H0.89375V17.3H2.29375ZM2.29375 11.3C2.29375 11.5232 2.11695 11.7 1.89375 11.7V10.3C1.34375 10.3 0.89375 10.75 0.89375 11.3H2.29375Z" fill="#C2CFE0"/>
</svg>
