<svg width="82" height="47" viewBox="0 0 82 47" fill="none" xmlns="http://www.w3.org/2000/svg">
<path fill-rule="evenodd" clip-rule="evenodd" d="M29.8693 9.14731C35.8464 9.14731 41.013 12.6125 43.472 17.642H34.1916C32.9494 16.8315 31.4651 16.3599 29.8693 16.3599C25.4943 16.3599 21.9468 19.9072 21.9468 24.2819C21.9468 27.7914 24.229 30.7661 27.3871 31.8082L20.2204 38.8545C18.395 39.2924 16.5023 39.4271 14.6306 39.2797C12.6874 39.1029 10.742 38.4755 9.21565 37.2313C5.71653 34.425 5.69127 29.8419 5.66601 25.7577C5.66811 22.2209 5.65758 18.682 5.67022 15.1452C3.7817 15.101 1.89319 15.1388 0.00467859 15.1262C0.00467859 12.962 -0.00584824 10.7978 0.00467859 8.63573C5.64916 8.60205 0.00467847 8.63573 5.64916 8.60205C5.69969 5.7368 5.63021 2.86524 5.68285 0C8.17771 0.0126315 10.6726 0.008421 13.1695 0.00210525C13.1632 9.45888 13.1358 18.9157 13.1274 28.3724C13.1232 29.4672 13.4264 30.6145 14.1822 31.4356C15.2454 32.6103 16.2476 32.7429 17.195 32.5535C15.6412 30.1766 14.7359 27.3346 14.7359 24.2819C14.7359 15.9241 21.511 9.14731 29.8693 9.14731ZM0.00257322 10.8441H13.1485V12.4736H0.00257322V10.8441Z" fill="#20CE99"/>
<path fill-rule="evenodd" clip-rule="evenodd" d="M42.9697 31.8651C40.3506 36.3787 35.4661 39.4166 29.8701 39.4166C28.7142 39.4166 27.5879 39.2861 26.5078 39.0397L33.5987 31.8651H42.9697Z" fill="#636266"/>
<path d="M28.043 19.6462H32.999V21.103H31.3231V29.8461H29.7188V21.103H28.043V19.6462ZM35.1696 27.5009C35.1696 27.8693 35.2454 28.1303 35.3949 28.2798C35.5465 28.4314 35.7486 28.5051 36.0012 28.5051C36.2539 28.5051 36.4539 28.4314 36.6055 28.2798C36.755 28.1303 36.8308 27.8693 36.8308 27.5009V21.9914C36.8308 21.623 36.755 21.3641 36.6055 21.2125C36.4539 21.063 36.2539 20.9872 36.0012 20.9872C35.7486 20.9872 35.5465 21.063 35.3949 21.2125C35.2454 21.3641 35.1696 21.623 35.1696 21.9914V27.5009ZM33.5674 22.0946C33.5674 21.2693 33.7759 20.6335 34.1927 20.1935C34.6117 19.7514 35.2138 19.5304 36.0012 19.5304C36.7865 19.5304 37.3887 19.7514 37.8077 20.1935C38.2245 20.6335 38.4329 21.2693 38.4329 22.0946V27.3977C38.4329 28.2251 38.2245 28.8588 37.8077 29.3009C37.3887 29.743 36.7865 29.964 36.0012 29.964C35.2138 29.964 34.6117 29.743 34.1927 29.3009C33.7759 28.8588 33.5674 28.2251 33.5674 27.3977V22.0946ZM40.9994 19.6462V27.5156C40.9994 27.884 41.0752 28.1409 41.2247 28.2882C41.3762 28.4335 41.5763 28.5051 41.8289 28.5051C42.0815 28.5051 42.2837 28.4335 42.4352 28.2882C42.5847 28.1409 42.6605 27.884 42.6605 27.5156V19.6462H44.1764V27.4124C44.1764 28.2398 43.9743 28.8735 43.57 29.3156C43.1679 29.7577 42.5721 29.9787 41.7868 29.9787C40.9994 29.9787 40.4036 29.7577 40.0014 29.3156C39.5972 28.8735 39.3951 28.2398 39.3951 27.4124V19.6462H40.9994ZM49.9177 26.044V27.3977C49.9177 28.2251 49.7156 28.8588 49.3135 29.3009C48.9092 29.743 48.3155 29.964 47.5281 29.964C46.7407 29.964 46.1449 29.743 45.7428 29.3009C45.3385 28.8588 45.1385 28.2251 45.1385 27.3977V22.0946C45.1385 21.2693 45.3385 20.6335 45.7428 20.1935C46.1449 19.7514 46.7407 19.5304 47.5281 19.5304C48.3155 19.5304 48.9092 19.7514 49.3135 20.1935C49.7156 20.6335 49.9177 21.2693 49.9177 22.0946V23.0862H48.4018V21.9914C48.4018 21.623 48.3261 21.3641 48.1766 21.2125C48.025 21.063 47.825 20.9872 47.5723 20.9872C47.3197 20.9872 47.1176 21.063 46.966 21.2125C46.8165 21.3641 46.7407 21.623 46.7407 21.9914V27.5009C46.7407 27.8693 46.8165 28.1282 46.966 28.2735C47.1176 28.4188 47.3197 28.4924 47.5723 28.4924C47.825 28.4924 48.025 28.4188 48.1766 28.2735C48.3261 28.1282 48.4018 27.8693 48.4018 27.5009V26.044H49.9177ZM52.4968 29.8461H50.8946V19.6462H52.4968V24.0188H54.3179V19.6462H55.9517V29.8461H54.3179V25.4756H52.4968V29.8461ZM64.0237 26.044V27.3977C64.0237 28.2251 63.8236 28.8588 63.4194 29.3009C63.0173 29.743 62.4215 29.964 61.6341 29.964C60.8467 29.964 60.2529 29.743 59.8487 29.3009C59.4466 28.8588 59.2445 28.2251 59.2445 27.3977V22.0946C59.2445 21.2693 59.4466 20.6335 59.8487 20.1935C60.2529 19.7514 60.8467 19.5304 61.6341 19.5304C62.4215 19.5304 63.0173 19.7514 63.4194 20.1935C63.8236 20.6335 64.0237 21.2693 64.0237 22.0946V23.0862H62.5099V21.9914C62.5099 21.623 62.4341 21.3641 62.2825 21.2125C62.133 21.063 61.9309 20.9872 61.6783 20.9872C61.4256 20.9872 61.2235 21.063 61.074 21.2125C60.9225 21.3641 60.8467 21.623 60.8467 21.9914V27.5009C60.8467 27.8693 60.9225 28.1282 61.074 28.2735C61.2235 28.4188 61.4256 28.4924 61.6783 28.4924C61.9309 28.4924 62.133 28.4188 62.2825 28.2735C62.4341 28.1282 62.5099 27.8693 62.5099 27.5009V26.044H64.0237ZM66.4722 27.5009C66.4722 27.8693 66.548 28.1303 66.6996 28.2798C66.8491 28.4314 67.0512 28.5051 67.3038 28.5051C67.5565 28.5051 67.7586 28.4314 67.9081 28.2798C68.0596 28.1303 68.1333 27.8693 68.1333 27.5009V21.9914C68.1333 21.623 68.0596 21.3641 67.9081 21.2125C67.7586 21.063 67.5565 20.9872 67.3038 20.9872C67.0512 20.9872 66.8491 21.063 66.6996 21.2125C66.548 21.3641 66.4722 21.623 66.4722 21.9914V27.5009ZM64.87 22.0946C64.87 21.2693 65.0784 20.6335 65.4974 20.1935C65.9143 19.7514 66.5164 19.5304 67.3038 19.5304C68.0912 19.5304 68.6934 19.7514 69.1102 20.1935C69.5292 20.6335 69.7376 21.2693 69.7376 22.0946V27.3977C69.7376 28.2251 69.5292 28.8588 69.1102 29.3009C68.6934 29.743 68.0912 29.964 67.3038 29.964C66.5164 29.964 65.9143 29.743 65.4974 29.3009C65.0784 28.8588 64.87 28.2251 64.87 27.3977V22.0946ZM74.1231 29.8461C74.1041 29.7787 74.0852 29.7156 74.0662 29.6566C74.0452 29.5998 74.0284 29.5261 74.0136 29.4377C73.9989 29.3514 73.9905 29.2398 73.9862 29.103C73.9799 28.9682 73.9778 28.7977 73.9778 28.5935V26.9914C73.9778 26.5135 73.8957 26.1788 73.7294 25.9851C73.5652 25.7914 73.2978 25.6946 72.9294 25.6946H72.3756V29.8461H70.7714V19.6462H73.1904C74.0262 19.6462 74.6305 19.8399 75.0052 20.2293C75.38 20.6167 75.5674 21.2062 75.5674 21.9914V22.7935C75.5674 23.8419 75.2158 24.5325 74.5168 24.863C74.9252 25.0272 75.2052 25.2988 75.3547 25.6714C75.5063 26.0461 75.58 26.5009 75.58 27.0335V28.6082C75.58 28.8609 75.5905 29.0819 75.6095 29.2714C75.6305 29.4609 75.679 29.6524 75.7569 29.8461H74.1231ZM72.3756 21.103V24.2356H73.0009C73.302 24.2356 73.5378 24.1577 73.7083 24.004C73.8789 23.8483 73.9631 23.5662 73.9631 23.1577V22.1535C73.9631 21.783 73.8978 21.5156 73.7673 21.3514C73.6346 21.1851 73.4283 21.103 73.1483 21.103H72.3756ZM78.2328 23.9451H80.435V25.4019H78.2328V28.3893H81.0013V29.8461H76.6306V19.6462H81.0013V21.103H78.2328V23.9451Z" fill="#636266"/>
<path d="M9.62098 44.5168C9.62098 44.7821 9.53256 45.0073 9.35781 45.1905C9.1978 45.361 8.98727 45.4473 8.7241 45.4473C8.46093 45.4473 8.2546 45.3631 8.10301 45.1968C7.92827 45.0094 7.83984 44.7715 7.83984 44.4852H8.31776C8.31776 44.6516 8.36197 44.7821 8.4504 44.8789C8.52198 44.9526 8.61251 44.9905 8.7241 44.9905C8.8441 44.9905 8.94095 44.9505 9.01674 44.8726C9.09675 44.7884 9.13675 44.681 9.13675 44.5484C9.13675 44.4347 9.11148 44.3379 9.05885 44.2537C9.00622 44.1716 8.91569 44.0937 8.78515 44.0242L8.38303 43.8116C8.18512 43.7063 8.04406 43.5821 7.95985 43.4368C7.89669 43.321 7.86511 43.1779 7.86511 43.0116C7.86511 42.7547 7.94932 42.5358 8.12196 42.3568C8.27565 42.1947 8.47987 42.1126 8.73041 42.1126C8.98516 42.1126 9.18517 42.1905 9.33255 42.3442C9.50098 42.5105 9.58519 42.7484 9.58519 43.0558H9.10727C9.10727 42.881 9.06938 42.7526 8.99358 42.6684C8.92621 42.5947 8.83779 42.5568 8.73041 42.5568C8.61883 42.5568 8.5304 42.5926 8.46093 42.6621C8.38513 42.7421 8.34724 42.8452 8.34724 42.9758C8.34724 43.0663 8.36619 43.1463 8.40198 43.2116C8.44619 43.2916 8.5304 43.361 8.65883 43.4242L9.05253 43.6305C9.25886 43.7337 9.40624 43.8579 9.48834 43.9989C9.57677 44.1358 9.62098 44.3084 9.62098 44.5168ZM11.7621 42.9126C11.7916 43.1252 11.8064 43.4137 11.8064 43.78C11.8064 44.1463 11.7916 44.4347 11.7621 44.6473C11.7306 44.86 11.6716 45.0263 11.5853 45.1463C11.4421 45.3463 11.2232 45.4473 10.9284 45.4473C10.6379 45.4473 10.421 45.3463 10.2779 45.1463C10.1894 45.0263 10.1305 44.8579 10.0989 44.6452C10.0652 44.4305 10.0505 44.1421 10.0505 43.78C10.0505 43.4179 10.0652 43.1295 10.0989 42.9147C10.1305 42.7021 10.1894 42.5337 10.2779 42.4137C10.421 42.2137 10.6379 42.1126 10.9284 42.1126C11.2232 42.1126 11.4421 42.2137 11.5853 42.4137C11.6716 42.5337 11.7306 42.7 11.7621 42.9126ZM11.3011 44.5105C11.3158 44.3568 11.3221 44.1126 11.3221 43.78C11.3221 43.4473 11.3158 43.2031 11.3011 43.0495C11.2863 42.8958 11.2547 42.7821 11.2021 42.7063C11.139 42.6158 11.0484 42.5695 10.9284 42.5695C10.8126 42.5695 10.7221 42.6158 10.6589 42.7063C10.6084 42.7821 10.5726 42.8979 10.5579 43.0558C10.541 43.2137 10.5347 43.4558 10.5347 43.78C10.5347 44.1042 10.541 44.3463 10.5579 44.5042C10.5726 44.6621 10.6084 44.7779 10.6589 44.8537C10.7221 44.9442 10.8126 44.9905 10.9284 44.9905C11.0484 44.9905 11.139 44.9442 11.2021 44.8537C11.2547 44.7779 11.2863 44.6642 11.3011 44.5105ZM13.4654 42.5568H12.9875V45.3968H12.5053V42.5568H12.1516V42.1631H12.5053V41.8516C12.5053 41.5274 12.5938 41.2874 12.7727 41.1337C12.9285 40.9968 13.1601 40.9274 13.4654 40.9274V41.3842C13.1475 41.3842 12.9875 41.5463 12.9875 41.8705V42.1631H13.4654V42.5568ZM15.0002 45.3968C14.6781 45.3968 14.4423 45.3294 14.2907 45.1968C14.1117 45.0431 14.0212 44.801 14.0212 44.4726V42.5568H13.6696V42.1631H14.0212V41.2768H14.5054V42.1631H14.9833V42.5568H14.5054V44.4537C14.5054 44.7779 14.6696 44.94 15.0002 44.94V45.3968ZM18.2382 42.1631L17.5856 45.3968H17.0971L16.6782 43.0305L16.2718 45.3968H15.7834L15.1434 42.1631H15.6929L16.0466 44.5968L16.4571 42.1631H16.8929L17.3287 44.5968L17.6887 42.1631H18.2382ZM20.2131 45.3968H19.7541V45.1084C19.7057 45.1926 19.6467 45.2663 19.5751 45.3273C19.4762 45.4073 19.3541 45.4473 19.2109 45.4473C18.9962 45.4473 18.8193 45.3652 18.6804 45.2031C18.5477 45.0452 18.4825 44.8031 18.4825 44.4789C18.4825 44.1631 18.573 43.9189 18.7562 43.7484C18.9162 43.6031 19.1351 43.5295 19.413 43.5295H19.7309V43.0179C19.7309 42.7105 19.6088 42.5568 19.3667 42.5568C19.2741 42.5568 19.1941 42.5926 19.1267 42.6621C19.0509 42.7463 19.013 42.8705 19.013 43.0368H18.5309C18.5309 42.7463 18.6088 42.5168 18.7688 42.3505C18.9204 42.1926 19.1183 42.1126 19.3667 42.1126C19.6257 42.1126 19.8257 42.1884 19.9689 42.3379C20.1331 42.5168 20.2131 42.7547 20.2131 43.0495V45.3968ZM19.7309 44.4979V43.8979H19.4551C19.3036 43.8979 19.1899 43.9379 19.1099 44.0179C19.013 44.1084 18.9667 44.2558 18.9667 44.46C18.9667 44.8221 19.0909 45.0031 19.3415 45.0031C19.4572 45.0031 19.552 44.9568 19.6236 44.8621C19.6952 44.7694 19.7309 44.6473 19.7309 44.4979ZM22.0595 42.601H21.9163C21.7479 42.601 21.6131 42.6537 21.51 42.7589C21.4068 42.8663 21.3542 43.0095 21.3542 43.1926V45.3968H20.8699V42.1631H21.3373V42.5063C21.3816 42.4242 21.4531 42.3463 21.5521 42.2747C21.6995 42.1674 21.8679 42.1126 22.0595 42.1126V42.601ZM24.0954 43.8979H22.8237C22.8237 44.4221 22.8658 44.7421 22.9501 44.8537C23.009 44.9442 23.0995 44.9905 23.2237 44.9905C23.3395 44.9905 23.4301 44.9484 23.4996 44.8663C23.5669 44.7821 23.6006 44.6579 23.6006 44.4916H24.0827C24.0806 44.7905 23.9964 45.0305 23.8322 45.2094C23.6848 45.3673 23.4827 45.4473 23.2237 45.4473C22.9606 45.4473 22.7564 45.3631 22.609 45.1968C22.5016 45.0768 22.4279 44.9042 22.39 44.6789C22.3521 44.4537 22.3332 44.1547 22.3332 43.78C22.3332 43.401 22.3521 43.1 22.3879 42.8789C22.4237 42.6558 22.4953 42.4831 22.6027 42.3631C22.75 42.1968 22.9522 42.1126 23.2111 42.1126C23.4701 42.1126 23.6743 42.1968 23.8217 42.3631C23.9333 42.4831 24.0069 42.66 24.0427 42.8937C24.0785 43.1274 24.0954 43.4621 24.0954 43.8979ZM23.6069 43.5168C23.6069 43.0726 23.5669 42.7989 23.4869 42.7C23.4238 42.6137 23.3311 42.5695 23.2111 42.5695C23.0974 42.5695 23.0069 42.6137 22.9437 42.7C22.8637 42.7989 22.8237 43.0726 22.8237 43.5168H23.6069ZM27.405 45.3968H26.9313V45.1463C26.8934 45.2305 26.8302 45.2958 26.7481 45.3463C26.6387 45.4137 26.5292 45.4473 26.4134 45.4473C26.2007 45.4473 26.0302 45.3652 25.8997 45.2031C25.807 45.0915 25.746 44.9273 25.7165 44.7168C25.687 44.5042 25.6723 44.1926 25.6723 43.78C25.6723 43.3673 25.687 43.0558 25.7165 42.841C25.746 42.6263 25.807 42.4621 25.8997 42.3505C26.026 42.1926 26.1986 42.1126 26.4134 42.1126C26.5313 42.1126 26.6429 42.1442 26.7481 42.2074C26.8029 42.241 26.8597 42.3 26.9208 42.3884V40.9526H27.405V45.3968ZM26.9208 44.5168V43.0368C26.9208 42.8747 26.8808 42.7526 26.8008 42.6684C26.7376 42.6031 26.6534 42.5695 26.5502 42.5695C26.4386 42.5695 26.3502 42.6137 26.2871 42.7C26.2365 42.7674 26.2007 42.8768 26.186 43.0284C26.1692 43.18 26.1628 43.4305 26.1628 43.78C26.1628 44.1294 26.1692 44.38 26.186 44.5316C26.2007 44.6831 26.2365 44.7926 26.2871 44.86C26.3502 44.9463 26.4386 44.9905 26.5502 44.9905C26.6534 44.9905 26.7376 44.9568 26.8008 44.8915C26.8808 44.8073 26.9208 44.6831 26.9208 44.5168ZM29.7441 43.8979H28.4724C28.4724 44.4221 28.5145 44.7421 28.5987 44.8537C28.6577 44.9442 28.7503 44.9905 28.8724 44.9905C28.9882 44.9905 29.0809 44.9484 29.1482 44.8663C29.2156 44.7821 29.2493 44.6579 29.2493 44.4916H29.7335C29.7293 44.7905 29.6451 45.0305 29.483 45.2094C29.3356 45.3673 29.1314 45.4473 28.8724 45.4473C28.6093 45.4473 28.4051 45.3631 28.2577 45.1968C28.1503 45.0768 28.0787 44.9042 28.0408 44.6789C28.0029 44.4537 27.984 44.1547 27.984 43.78C27.984 43.401 28.0008 43.1 28.0366 42.8789C28.0724 42.6558 28.144 42.4831 28.2514 42.3631C28.3987 42.1968 28.603 42.1126 28.8619 42.1126C29.1209 42.1126 29.323 42.1968 29.4704 42.3631C29.582 42.4831 29.6556 42.66 29.6914 42.8937C29.7272 43.1274 29.7441 43.4621 29.7441 43.8979ZM29.2556 43.5168C29.2556 43.0726 29.2156 42.7989 29.1356 42.7C29.0725 42.6137 28.9798 42.5695 28.8619 42.5695C28.7461 42.5695 28.6556 42.6137 28.5924 42.7C28.5124 42.7989 28.4724 43.0726 28.4724 43.5168H29.2556ZM31.9252 44.5168C31.9252 44.7821 31.8368 45.0073 31.6621 45.1905C31.502 45.361 31.2915 45.4473 31.0283 45.4473C30.7652 45.4473 30.5588 45.3631 30.4073 45.1968C30.2325 45.0094 30.1441 44.7715 30.1441 44.4852H30.622C30.622 44.6516 30.6662 44.7821 30.7546 44.8789C30.8262 44.9526 30.9168 44.9905 31.0283 44.9905C31.1483 44.9905 31.2452 44.9505 31.321 44.8726C31.401 44.7884 31.441 44.681 31.441 44.5484C31.441 44.4347 31.4157 44.3379 31.3631 44.2537C31.3126 44.1716 31.2199 44.0937 31.0894 44.0242L30.6894 43.8116C30.4894 43.7063 30.3483 43.5821 30.2641 43.4368C30.2009 43.321 30.1693 43.1779 30.1693 43.0116C30.1693 42.7547 30.2536 42.5358 30.4262 42.3568C30.582 42.1947 30.7841 42.1126 31.0347 42.1126C31.2894 42.1126 31.4915 42.1905 31.6389 42.3442C31.8052 42.5105 31.8894 42.7484 31.8894 43.0558H31.4115C31.4115 42.881 31.3736 42.7526 31.2978 42.6684C31.2305 42.5947 31.142 42.5568 31.0347 42.5568C30.9231 42.5568 30.8346 42.5926 30.7652 42.6621C30.6915 42.7421 30.6536 42.8452 30.6536 42.9758C30.6536 43.0663 30.6704 43.1463 30.7062 43.2116C30.7504 43.2916 30.8367 43.361 30.9631 43.4242L31.3568 43.6305C31.5652 43.7337 31.7105 43.8579 31.7926 43.9989C31.881 44.1358 31.9252 44.3084 31.9252 44.5168ZM32.9337 45.3968H32.4495V42.1631H32.9337V45.3968ZM32.9758 41.5884H32.4074V41.0032H32.9758V41.5884ZM35.2454 42.1631V45.4705C35.2454 45.8958 35.1612 46.1968 34.9948 46.3757C34.8433 46.5421 34.639 46.6263 34.3843 46.6263C34.1232 46.6263 33.9148 46.5484 33.7632 46.3947C33.6095 46.2326 33.5316 45.9989 33.5316 45.6958H34.0159C34.0159 45.8747 34.0495 46.0031 34.1169 46.0831C34.1843 46.1547 34.2706 46.1884 34.378 46.1884C34.4875 46.1884 34.5738 46.1505 34.6411 46.0705C34.7211 45.9821 34.7612 45.7947 34.7612 45.5021V45.0094C34.7064 45.0937 34.6475 45.1526 34.5885 45.1905C34.5001 45.2579 34.3927 45.2894 34.2664 45.2894C34.0537 45.2894 33.8853 45.2115 33.759 45.0537C33.6621 44.94 33.5969 44.7863 33.5632 44.5884C33.5295 44.3905 33.5127 44.0937 33.5127 43.6979C33.5127 43.3042 33.5295 43.0074 33.5632 42.8116C33.5969 42.6179 33.6621 42.46 33.759 42.3442C33.8895 42.1905 34.058 42.1126 34.2664 42.1126C34.3969 42.1126 34.5085 42.1463 34.599 42.2137C34.6685 42.26 34.7254 42.3168 34.7738 42.3884V42.1631H35.2454ZM34.7612 44.3737V43.0368C34.7612 42.8747 34.7211 42.7526 34.6411 42.6684C34.578 42.6031 34.4938 42.5695 34.3906 42.5695C34.279 42.5695 34.1927 42.6137 34.1274 42.7C34.0769 42.7674 34.0432 42.8705 34.0264 43.0095C34.0116 43.1484 34.0032 43.38 34.0032 43.7042C34.0032 44.0305 34.0116 44.2621 34.0264 44.401C34.0432 44.54 34.0769 44.6452 34.1274 44.7168C34.199 44.8031 34.2874 44.8473 34.3906 44.8473C34.4896 44.8473 34.5738 44.8115 34.6411 44.7421C34.7211 44.6579 34.7612 44.5358 34.7612 44.3737ZM37.6266 45.3968H37.1444V43.0179C37.1444 42.8768 37.1086 42.7674 37.0392 42.6916C36.9697 42.6137 36.8813 42.5758 36.7739 42.5758C36.6665 42.5758 36.5781 42.6137 36.5107 42.6916C36.4433 42.7674 36.4097 42.8768 36.4097 43.0179V45.3968H35.9254V42.1631H36.3907V42.4137C36.4349 42.3337 36.4981 42.2684 36.5823 42.2137C36.6855 42.1463 36.797 42.1126 36.917 42.1126C37.136 42.1126 37.3107 42.1926 37.4434 42.3505C37.5655 42.4916 37.6266 42.7147 37.6266 43.0179V45.3968Z" fill="#20CE99"/>
<path d="M41.9788 45.3955H41.4588L41.1725 44.9386C41.0335 45.1092 40.8946 45.2376 40.7556 45.3197C40.6167 45.4039 40.4461 45.446 40.2482 45.446C39.964 45.446 39.7324 45.3449 39.5492 45.1449C39.3661 44.9449 39.2734 44.6776 39.2734 44.3407C39.2734 44.086 39.3282 43.8544 39.4377 43.6418C39.5471 43.4292 39.7219 43.2039 39.9619 42.9681C39.7745 42.6965 39.6461 42.486 39.5766 42.3365C39.5071 42.1871 39.4713 42.025 39.4713 41.8502C39.4713 41.566 39.545 41.3387 39.6945 41.166C39.844 40.9934 40.0419 40.9071 40.2903 40.9071C40.5556 40.9071 40.7619 40.9892 40.9051 41.1534C41.0483 41.3176 41.1198 41.5323 41.1198 41.7934C41.1198 42.0439 41.0735 42.2607 40.9788 42.4439C40.8861 42.625 40.7325 42.825 40.5219 43.0418L41.1725 44.0713C41.2967 43.8271 41.3725 43.5134 41.3999 43.1365H41.8294C41.7978 43.6692 41.6693 44.1281 41.442 44.5155L41.9788 45.3955ZM40.9283 44.5407L40.1998 43.3723C39.8924 43.6923 39.7408 44.0018 39.7408 44.2965C39.7408 44.4965 39.7893 44.6607 39.8903 44.7892C39.9893 44.9176 40.1219 44.9828 40.2903 44.9828C40.5051 44.9828 40.7177 44.8355 40.9283 44.5407ZM40.6714 41.806C40.6714 41.6776 40.6377 41.5702 40.5661 41.4881C40.4967 41.4039 40.4061 41.3639 40.2945 41.3639C40.1766 41.3639 40.084 41.4081 40.0187 41.5008C39.9514 41.5913 39.9198 41.705 39.9198 41.8376C39.9198 42.025 40.0377 42.2902 40.2777 42.6355C40.4167 42.486 40.5177 42.3534 40.5788 42.2376C40.6398 42.1197 40.6714 41.9765 40.6714 41.806ZM46.3685 45.3955H45.8843V43.0165C45.8843 42.8755 45.8506 42.766 45.7832 42.6902C45.7159 42.6123 45.6274 42.5744 45.5201 42.5744C45.4127 42.5744 45.3264 42.6123 45.259 42.6902C45.1895 42.766 45.1558 42.8755 45.1558 43.0165V45.3955H44.6737V43.0165C44.6737 42.8755 44.6379 42.766 44.5684 42.6902C44.499 42.6123 44.4105 42.5744 44.3032 42.5744C44.1958 42.5744 44.1074 42.6123 44.04 42.6902C43.9726 42.766 43.9389 42.8755 43.9389 43.0165V45.3955H43.4547V42.1618H43.92V42.4123C43.9642 42.3323 44.0274 42.2671 44.1116 42.2123C44.2147 42.145 44.3263 42.1113 44.4463 42.1113C44.5663 42.1113 44.6779 42.1429 44.7832 42.206C44.8884 42.2692 44.9727 42.3492 45.0379 42.4481C45.1158 42.345 45.1979 42.2671 45.2821 42.2123C45.3853 42.145 45.5032 42.1113 45.6337 42.1113C45.8738 42.1113 46.059 42.1913 46.1896 42.3492C46.3096 42.486 46.3685 42.7092 46.3685 43.0165V45.3955ZM48.6149 45.3955H48.1539V45.107C48.1054 45.1913 48.0465 45.2649 47.9749 45.326C47.876 45.406 47.7538 45.446 47.6107 45.446C47.3959 45.446 47.2191 45.3639 47.0801 45.2018C46.9475 45.0439 46.8822 44.8018 46.8822 44.4776C46.8822 44.1618 46.9728 43.9176 47.1559 43.7471C47.3159 43.6018 47.5349 43.5281 47.8128 43.5281H48.1307V43.0165C48.1307 42.7092 48.0086 42.5555 47.7665 42.5555C47.6738 42.5555 47.5959 42.5913 47.5265 42.6607C47.4507 42.745 47.4128 42.8692 47.4128 43.0355H46.9307C46.9307 42.745 47.0107 42.5155 47.1686 42.3492C47.3201 42.1913 47.5202 42.1113 47.7665 42.1113C48.0254 42.1113 48.2254 42.1871 48.3686 42.3365C48.5328 42.5155 48.6149 42.7534 48.6149 43.0481V45.3955ZM48.1307 44.4965V43.8965H47.8549C47.7033 43.8965 47.5896 43.9365 47.5096 44.0165C47.4128 44.1071 47.3665 44.2544 47.3665 44.4586C47.3665 44.8207 47.4907 45.0018 47.7412 45.0018C47.857 45.0018 47.9518 44.9555 48.0233 44.8607C48.0949 44.7681 48.1307 44.646 48.1307 44.4965ZM50.4592 42.5997H50.3161C50.1498 42.5997 50.0129 42.6523 49.9097 42.7576C49.8066 42.865 49.7539 43.0081 49.7539 43.1913V45.3955H49.2718V42.1618H49.7371V42.505C49.7813 42.4229 49.8529 42.345 49.9518 42.2734C50.0992 42.166 50.2677 42.1113 50.4592 42.1113V42.5997ZM52.8425 45.3955H52.3035L51.714 43.8713L51.3793 44.4271V45.3955H50.8951V40.9513H51.3793V43.6965L52.2572 42.1618H52.7709L52.0172 43.4228L52.8425 45.3955ZM54.8847 43.8965H53.6131C53.6131 44.4207 53.6531 44.7407 53.7373 44.8523C53.7984 44.9428 53.8889 44.9892 54.0131 44.9892C54.1268 44.9892 54.2194 44.947 54.2868 44.8649C54.3542 44.7807 54.3879 44.6565 54.3879 44.4902H54.8721C54.8679 44.7892 54.7837 45.0292 54.6215 45.2081C54.4742 45.366 54.2721 45.446 54.0131 45.446C53.7499 45.446 53.5436 45.3618 53.3962 45.1955C53.2889 45.0755 53.2173 44.9028 53.1794 44.6776C53.1415 44.4523 53.1225 44.1534 53.1225 43.7786C53.1225 43.3997 53.1415 43.0986 53.1773 42.8776C53.2131 42.6544 53.2846 42.4818 53.392 42.3618C53.5394 42.1955 53.7415 42.1113 54.0005 42.1113C54.2594 42.1113 54.4615 42.1955 54.6089 42.3618C54.7205 42.4818 54.7942 42.6586 54.83 42.8923C54.8658 43.126 54.8847 43.4607 54.8847 43.8965ZM54.3942 43.5155C54.3942 43.0713 54.3542 42.7976 54.2742 42.6986C54.211 42.6123 54.1205 42.5681 54.0005 42.5681C53.8847 42.5681 53.7962 42.6123 53.731 42.6986C53.651 42.7976 53.6131 43.0713 53.6131 43.5155H54.3942ZM56.5374 45.3955C56.2153 45.3955 55.9795 45.3281 55.8279 45.1955C55.649 45.0418 55.5584 44.7997 55.5584 44.4713V42.5555H55.2068V42.1618H55.5584V41.2755H56.0427V42.1618H56.5206V42.5555H56.0427V44.4523C56.0427 44.7765 56.209 44.9386 56.5374 44.9386V45.3955ZM57.4827 45.3955H56.9985V42.1618H57.4827V45.3955ZM57.5227 41.5871H56.9564V41.0018H57.5227V41.5871ZM59.8639 45.3955H59.3818V43.0165C59.3818 42.8755 59.346 42.766 59.2765 42.6902C59.207 42.6123 59.1186 42.5744 59.0112 42.5744C58.9039 42.5744 58.8154 42.6123 58.7481 42.6902C58.6807 42.766 58.647 42.8755 58.647 43.0165V45.3955H58.1628V42.1618H58.6281V42.4123C58.6723 42.3323 58.7354 42.2671 58.8196 42.2123C58.9228 42.145 59.0344 42.1113 59.1544 42.1113C59.3734 42.1113 59.5481 42.1913 59.6786 42.3492C59.8029 42.4902 59.8639 42.7134 59.8639 43.0165V45.3955ZM62.1524 42.1618V45.4691C62.1524 45.8944 62.0682 46.1955 61.9019 46.3744C61.7503 46.5407 61.5461 46.6249 61.2913 46.6249C61.0282 46.6249 60.8218 46.547 60.6703 46.3934C60.5166 46.2312 60.4387 45.9976 60.4387 45.6944H60.9208C60.9208 45.8734 60.9545 46.0018 61.024 46.0818C61.0913 46.1534 61.1777 46.187 61.285 46.187C61.3945 46.187 61.4808 46.1491 61.5482 46.0691C61.6282 45.9807 61.6682 45.7934 61.6682 45.5007V45.0081C61.6114 45.0923 61.5545 45.1513 61.4956 45.1892C61.4071 45.2565 61.2998 45.2881 61.1734 45.2881C60.9608 45.2881 60.7924 45.2102 60.6639 45.0523C60.5692 44.9386 60.5039 44.7849 60.4703 44.587C60.4366 44.3892 60.4197 44.0923 60.4197 43.6965C60.4197 43.3028 60.4366 43.006 60.4703 42.8102C60.5039 42.6165 60.5692 42.4586 60.6639 42.3429C60.7966 42.1892 60.965 42.1113 61.1734 42.1113C61.304 42.1113 61.4156 42.145 61.5061 42.2123C61.5756 42.2586 61.6324 42.3155 61.6808 42.3871V42.1618H62.1524ZM61.6682 44.3723V43.0355C61.6682 42.8734 61.6282 42.7513 61.5482 42.6671C61.485 42.6018 61.4008 42.5681 61.2977 42.5681C61.1861 42.5681 61.0998 42.6123 61.0345 42.6986C60.984 42.766 60.9503 42.8692 60.9334 43.0081C60.9187 43.1471 60.9103 43.3786 60.9103 43.7028C60.9103 44.0292 60.9187 44.2607 60.9334 44.3997C60.9503 44.5386 60.984 44.6439 61.0345 44.7155C61.1061 44.8018 61.1945 44.846 61.2977 44.846C61.3966 44.846 61.4808 44.8102 61.5482 44.7407C61.6282 44.6565 61.6682 44.5344 61.6682 44.3723ZM65.5673 44.5155C65.5673 44.7807 65.481 45.006 65.3042 45.1892C65.1463 45.3597 64.9357 45.446 64.6726 45.446C64.4094 45.446 64.2031 45.3618 64.0515 45.1955C63.8767 45.0081 63.7883 44.7702 63.7883 44.4839H64.2662C64.2662 44.6502 64.3104 44.7807 64.3968 44.8776C64.4683 44.9513 64.561 44.9892 64.6726 44.9892C64.7905 44.9892 64.8894 44.9492 64.9652 44.8713C65.0431 44.787 65.0831 44.6797 65.0831 44.547C65.0831 44.4334 65.0578 44.3365 65.0073 44.2523C64.9547 44.1702 64.862 44.0923 64.7315 44.0228L64.3315 43.8102C64.1315 43.705 63.9904 43.5807 63.9083 43.4355C63.843 43.3197 63.8115 43.1765 63.8115 43.0102C63.8115 42.7534 63.8978 42.5344 64.0683 42.3555C64.2241 42.1934 64.4262 42.1113 64.6789 42.1113C64.9336 42.1113 65.1336 42.1892 65.281 42.3429C65.4473 42.5092 65.5315 42.7471 65.5315 43.0544H65.0536C65.0536 42.8797 65.0157 42.7513 64.9399 42.6671C64.8726 42.5934 64.7863 42.5555 64.6789 42.5555C64.5673 42.5555 64.4768 42.5913 64.4094 42.6607C64.3336 42.7407 64.2957 42.8439 64.2957 42.9744C64.2957 43.065 64.3125 43.145 64.3504 43.2102C64.3925 43.2902 64.4789 43.3597 64.6073 43.4228L65.001 43.6292C65.2073 43.7323 65.3526 43.8565 65.4368 43.9976C65.5231 44.1344 65.5673 44.3071 65.5673 44.5155ZM67.7085 42.9113C67.738 43.1239 67.7527 43.4123 67.7527 43.7786C67.7527 44.1449 67.738 44.4334 67.7085 44.646C67.679 44.8586 67.6201 45.0249 67.5316 45.1449C67.3885 45.3449 67.1695 45.446 66.8748 45.446C66.5842 45.446 66.3674 45.3449 66.2242 45.1449C66.1379 45.0249 66.0768 44.8565 66.0453 44.6439C66.0137 44.4292 65.9968 44.1407 65.9968 43.7786C65.9968 43.4165 66.0137 43.1281 66.0453 42.9134C66.0768 42.7007 66.1379 42.5323 66.2242 42.4123C66.3674 42.2123 66.5842 42.1113 66.8748 42.1113C67.1695 42.1113 67.3885 42.2123 67.5316 42.4123C67.6201 42.5323 67.679 42.6986 67.7085 42.9113ZM67.2495 44.5092C67.2622 44.3555 67.2706 44.1113 67.2706 43.7786C67.2706 43.446 67.2622 43.2018 67.2495 43.0481C67.2348 42.8944 67.2011 42.7807 67.1506 42.705C67.0874 42.6144 66.9948 42.5681 66.8748 42.5681C66.759 42.5681 66.6706 42.6144 66.6074 42.705C66.5548 42.7807 66.5211 42.8965 66.5042 43.0544C66.4895 43.2123 66.4811 43.4544 66.4811 43.7786C66.4811 44.1028 66.4895 44.3449 66.5042 44.5028C66.5211 44.6607 66.5548 44.7765 66.6074 44.8523C66.6706 44.9428 66.759 44.9892 66.8748 44.9892C66.9948 44.9892 67.0874 44.9428 67.1506 44.8523C67.2011 44.7765 67.2348 44.6628 67.2495 44.5092ZM69.258 45.3955C68.9633 45.3955 68.7401 45.3281 68.5885 45.1955C68.4054 45.0376 68.3148 44.7955 68.3148 44.4713V40.9513H68.7991V44.4523C68.7991 44.7765 68.9507 44.9386 69.258 44.9386V45.3955ZM71.3781 45.3955H70.9129V45.1449C70.8687 45.2249 70.8055 45.2902 70.7213 45.3449C70.6181 45.4123 70.5065 45.446 70.3865 45.446C70.1676 45.446 69.9928 45.366 69.8623 45.2081C69.7381 45.067 69.677 44.8439 69.677 44.5407V42.1618H70.1591V44.5407C70.1591 44.686 70.1949 44.7976 70.2644 44.8734C70.3339 44.9513 70.4223 44.9892 70.5297 44.9892C70.6371 44.9892 70.7255 44.9513 70.7929 44.8734C70.8602 44.7976 70.8939 44.686 70.8939 44.5407V42.1618H71.3781V45.3955ZM73.1509 45.3955C72.8287 45.3955 72.5929 45.3281 72.4414 45.1955C72.2624 45.0418 72.1719 44.7997 72.1719 44.4713V42.5555H71.8203V42.1618H72.1719V41.2755H72.6561V42.1618H73.134V42.5555H72.6561V44.4523C72.6561 44.7765 72.8203 44.9386 73.1509 44.9386V45.3955ZM74.0962 45.3955H73.6119V42.1618H74.0962V45.3955ZM74.1362 41.5871H73.5698V41.0018H74.1362V41.5871ZM76.391 42.9113C76.4205 43.1239 76.4352 43.4123 76.4352 43.7786C76.4352 44.1449 76.4205 44.4334 76.391 44.646C76.3615 44.8586 76.3026 45.0249 76.2163 45.1449C76.071 45.3449 75.8521 45.446 75.5573 45.446C75.2668 45.446 75.0499 45.3449 74.9067 45.1449C74.8204 45.0249 74.7594 44.8565 74.7278 44.6439C74.6962 44.4292 74.6815 44.1407 74.6815 43.7786C74.6815 43.4165 74.6962 43.1281 74.7278 42.9134C74.7594 42.7007 74.8204 42.5323 74.9067 42.4123C75.0499 42.2123 75.2668 42.1113 75.5573 42.1113C75.8521 42.1113 76.071 42.2123 76.2163 42.4123C76.3026 42.5323 76.3615 42.6986 76.391 42.9113ZM75.9321 44.5092C75.9447 44.3555 75.9531 44.1113 75.9531 43.7786C75.9531 43.446 75.9447 43.2018 75.9321 43.0481C75.9173 42.8944 75.8857 42.7807 75.8331 42.705C75.7699 42.6144 75.6773 42.5681 75.5573 42.5681C75.4436 42.5681 75.3531 42.6144 75.2899 42.705C75.2373 42.7807 75.2036 42.8965 75.1889 43.0544C75.172 43.2123 75.1636 43.4544 75.1636 43.7786C75.1636 44.1028 75.172 44.3449 75.1889 44.5028C75.2036 44.6607 75.2373 44.7765 75.2899 44.8523C75.3531 44.9428 75.4436 44.9892 75.5573 44.9892C75.6773 44.9892 75.7699 44.9428 75.8331 44.8523C75.8857 44.7765 75.9173 44.6628 75.9321 44.5092ZM78.7238 45.3955H78.2395V43.0165C78.2395 42.8755 78.2037 42.766 78.1343 42.6902C78.0648 42.6123 77.9764 42.5744 77.869 42.5744C77.7616 42.5744 77.6753 42.6123 77.6058 42.6902C77.5384 42.766 77.5048 42.8755 77.5048 43.0165V45.3955H77.0205V42.1618H77.4879V42.4123C77.53 42.3323 77.5953 42.2671 77.6774 42.2123C77.7827 42.145 77.8943 42.1113 78.0122 42.1113C78.2311 42.1113 78.4059 42.1913 78.5385 42.3492C78.6606 42.4902 78.7238 42.7134 78.7238 43.0165V45.3955ZM80.9976 44.5155C80.9976 44.7807 80.9112 45.006 80.7365 45.1892C80.5765 45.3597 80.366 45.446 80.1028 45.446C79.8396 45.446 79.6333 45.3618 79.4817 45.1955C79.307 45.0081 79.2185 44.7702 79.2185 44.4839H79.6964C79.6964 44.6502 79.7407 44.7807 79.8291 44.8776C79.9007 44.9513 79.9912 44.9892 80.1028 44.9892C80.2228 44.9892 80.3196 44.9492 80.3954 44.8713C80.4754 44.787 80.5154 44.6797 80.5154 44.547C80.5154 44.4334 80.4881 44.3365 80.4375 44.2523C80.3849 44.1702 80.2944 44.0923 80.1617 44.0228L79.7617 43.8102C79.5638 43.705 79.4227 43.5807 79.3385 43.4355C79.2754 43.3197 79.2438 43.1765 79.2438 43.0102C79.2438 42.7534 79.328 42.5344 79.5006 42.3555C79.6543 42.1934 79.8586 42.1113 80.1091 42.1113C80.3638 42.1113 80.5639 42.1892 80.7112 42.3429C80.8797 42.5092 80.9618 42.7471 80.9618 43.0544H80.486C80.486 42.8797 80.4481 42.7513 80.3723 42.6671C80.3028 42.5934 80.2165 42.5555 80.1091 42.5555C79.9975 42.5555 79.907 42.5913 79.8396 42.6607C79.7638 42.7407 79.7259 42.8439 79.7259 42.9744C79.7259 43.065 79.7449 43.145 79.7807 43.2102C79.8249 43.2902 79.9091 43.3597 80.0375 43.4228L80.4312 43.6292C80.6375 43.7323 80.7828 43.8565 80.867 43.9976C80.9555 44.1344 80.9976 44.3071 80.9976 44.5155Z" fill="#20CE99"/>
</svg>
