<svg width="158" height="157" viewBox="0 0 158 157" fill="none" xmlns="http://www.w3.org/2000/svg">
<circle cx="62.1274" cy="61.5335" r="5.61568" fill="#636266"/>
<circle cx="84.5883" cy="61.5335" r="5.61568" fill="#636266"/>
<circle cx="107.053" cy="61.5335" r="5.61568" fill="#636266"/>
<circle cx="129.514" cy="61.5335" r="5.61568" fill="#636266"/>
<circle cx="151.979" cy="61.5335" r="5.61568" fill="#636266"/>
<circle cx="62.1274" cy="83.9962" r="5.61568" fill="#636266"/>
<circle cx="84.5883" cy="83.9962" r="5.61568" fill="#636266"/>
<circle cx="107.053" cy="83.9962" r="5.61568" fill="#636266"/>
<circle cx="129.514" cy="83.9962" r="5.61568" fill="#636266"/>
<circle cx="151.979" cy="83.9962" r="5.61568" fill="#636266"/>
<circle cx="62.1274" cy="106.459" r="5.61568" fill="#636266"/>
<circle cx="84.5883" cy="106.459" r="5.61568" fill="#636266"/>
<circle cx="107.053" cy="106.459" r="5.61568" fill="#636266"/>
<circle cx="129.514" cy="106.459" r="5.61568" fill="#636266"/>
<circle cx="151.979" cy="106.459" r="5.61568" fill="#636266"/>
<circle cx="62.1274" cy="128.922" r="5.61568" fill="#636266"/>
<circle cx="84.5883" cy="128.922" r="5.61568" fill="#636266"/>
<circle cx="107.053" cy="128.922" r="5.61568" fill="#636266"/>
<circle cx="129.514" cy="128.922" r="5.61568" fill="#636266"/>
<circle cx="151.979" cy="128.922" r="5.61568" fill="#636266"/>
<circle cx="62.1274" cy="151.384" r="5.61568" fill="#636266"/>
<circle cx="84.5883" cy="151.384" r="5.61568" fill="#636266"/>
<circle cx="107.053" cy="151.384" r="5.61568" fill="#636266"/>
<circle cx="129.514" cy="151.384" r="5.61568" fill="#636266"/>
<circle cx="151.979" cy="151.384" r="5.61568" fill="#636266"/>
<circle cx="6.20943" cy="5.61568" r="5.61568" fill="#20CE99"/>
<circle cx="28.6704" cy="5.61568" r="5.61568" fill="#20CE99"/>
<circle cx="51.1352" cy="5.61568" r="5.61568" fill="#20CE99"/>
<circle cx="73.5961" cy="5.61568" r="5.61568" fill="#20CE99"/>
<circle cx="96.061" cy="5.61568" r="5.61568" fill="#20CE99"/>
<circle cx="6.20943" cy="28.0784" r="5.61568" fill="#20CE99"/>
<circle cx="28.6704" cy="28.0784" r="5.61568" fill="#20CE99"/>
<circle cx="51.1352" cy="28.0784" r="5.61568" fill="#20CE99"/>
<circle cx="73.5961" cy="28.0784" r="5.61568" fill="#20CE99"/>
<circle cx="96.061" cy="28.0784" r="5.61568" fill="#20CE99"/>
<circle cx="6.20943" cy="50.5411" r="5.61568" fill="#20CE99"/>
<circle cx="28.6704" cy="50.5411" r="5.61568" fill="#20CE99"/>
<circle cx="51.1352" cy="50.5411" r="5.61568" fill="#20CE99"/>
<circle cx="73.5961" cy="50.5411" r="5.61568" fill="#20CE99"/>
<circle cx="96.061" cy="50.5411" r="5.61568" fill="#20CE99"/>
<circle cx="6.20943" cy="73.0038" r="5.61568" fill="#20CE99"/>
<circle cx="28.6704" cy="73.0038" r="5.61568" fill="#20CE99"/>
<circle cx="51.1352" cy="73.0038" r="5.61568" fill="#20CE99"/>
<circle cx="73.5961" cy="73.0038" r="5.61568" fill="#20CE99"/>
<circle cx="96.061" cy="73.0038" r="5.61568" fill="#20CE99"/>
<circle cx="6.20943" cy="95.4665" r="5.61568" fill="#20CE99"/>
<circle cx="28.6704" cy="95.4665" r="5.61568" fill="#20CE99"/>
<circle cx="51.1352" cy="95.4665" r="5.61568" fill="#20CE99"/>
<circle cx="73.5961" cy="95.4665" r="5.61568" fill="#20CE99"/>
<circle cx="96.061" cy="95.4665" r="5.61568" fill="#20CE99"/>
</svg>
