<svg width="17" height="4" viewBox="0 0 17 4" fill="none" xmlns="http://www.w3.org/2000/svg">
<path fill-rule="evenodd" clip-rule="evenodd" d="M2.59375 0C1.49375 0 0.59375 0.9 0.59375 2C0.59375 3.1 1.49375 4 2.59375 4C3.69375 4 4.59375 3.1 4.59375 2C4.59375 0.9 3.69375 0 2.59375 0ZM14.5938 0C13.4937 0 12.5938 0.9 12.5938 2C12.5938 3.1 13.4937 4 14.5938 4C15.6938 4 16.5938 3.1 16.5938 2C16.5938 0.9 15.6938 0 14.5938 0ZM6.59375 2C6.59375 0.9 7.49375 0 8.59375 0C9.69375 0 10.5938 0.9 10.5938 2C10.5938 3.1 9.69375 4 8.59375 4C7.49375 4 6.59375 3.1 6.59375 2Z" fill="#C2CFE0"/>
</svg>
